<svg width="1920" height="1080" viewBox="0 0 1920 1080" fill="none" xmlns="http://www.w3.org/2000/svg">
<mask id="path-1-outside-1_513_22" maskUnits="userSpaceOnUse" x="584" y="446" width="798" height="235" fill="black">
<rect fill="white" x="584" y="446" width="798" height="235"/>
<path d="M765.937 540.8H717.937C714.203 540.8 712.337 539.2 712.337 536C712.337 534.533 712.87 532.933 713.937 531.2L719.337 521.6C720.403 519.867 720.937 518.267 720.937 516.8C720.937 513.6 719.07 512 715.337 512C712.67 512 709.87 512.933 706.937 514.8C704.003 516.667 701.737 518.933 700.137 521.6L689.137 540.8C688.203 542.533 687.737 544.133 687.737 545.6C687.737 548.8 689.537 550.4 693.137 550.4H760.337C764.07 550.4 765.937 552 765.937 555.2C765.937 556.667 765.403 558.267 764.337 560L742.337 598.4C740.737 601.067 738.47 603.333 735.537 605.2C732.603 607.067 729.803 608 727.137 608H679.137C676.47 608 673.67 608.933 670.737 610.8C667.803 612.667 665.537 614.933 663.937 617.6L641.737 656C639.737 659.467 637.67 661.2 635.537 661.2C634.337 661.2 633.337 660.6 632.537 659.4L605.937 614.2C603.537 610.067 599.137 608 592.737 608C589.003 608 587.137 606.4 587.137 603.2C587.137 601.733 587.67 600.133 588.737 598.4L599.737 579.2C601.203 576.533 603.403 574.267 606.337 572.4C609.403 570.533 612.27 569.6 614.937 569.6H662.937C666.537 569.6 668.337 571.2 668.337 574.4C668.337 575.867 667.87 577.467 666.937 579.2L661.337 588.8C660.403 590.533 659.937 592.133 659.937 593.6C659.937 596.8 661.803 598.4 665.537 598.4C668.07 598.4 670.803 597.467 673.737 595.6C676.803 593.733 679.07 591.467 680.537 588.8L691.737 569.6C692.67 567.867 693.137 566.267 693.137 564.8C693.137 561.6 691.27 560 687.537 560H620.337C616.737 560 614.937 558.4 614.937 555.2C614.937 553.733 615.403 552.133 616.337 550.4L638.537 512C640.003 509.333 642.203 507.067 645.137 505.2C648.203 503.333 651.07 502.4 653.737 502.4H701.737C704.403 502.4 707.203 501.467 710.137 499.6C713.07 497.733 715.27 495.467 716.737 492.8L738.937 454.4C740.937 450.933 743.07 449.2 745.337 449.2C746.537 449.2 747.47 449.8 748.137 451L774.737 496.2C777.27 500.333 781.737 502.4 788.137 502.4C791.737 502.4 793.537 504 793.537 507.2C793.537 508.667 793.07 510.267 792.137 512L781.137 531.2C779.537 533.867 777.27 536.133 774.337 538C771.403 539.867 768.603 540.8 765.937 540.8ZM828.576 502.4H962.976C966.709 502.4 968.576 504 968.576 507.2C968.576 508.667 968.109 510.267 967.176 512L917.176 598.4C915.709 601.067 913.442 603.333 910.376 605.2C907.442 607.067 904.642 608 901.976 608H834.776C832.242 608 829.442 608.933 826.376 610.8C823.442 612.667 821.242 614.933 819.776 617.6L787.976 672.8C785.976 676.267 783.842 678 781.576 678C780.376 678 779.376 677.333 778.576 676L752.176 631C751.242 629.533 750.776 627.667 750.776 625.4C750.776 622.067 751.576 619.067 753.176 616.4L813.576 512C815.042 509.333 817.242 507.067 820.176 505.2C823.109 503.333 825.909 502.4 828.576 502.4ZM855.576 588.8L894.376 521.6C895.309 519.867 895.776 518.267 895.776 516.8C895.776 513.6 893.976 512 890.376 512C887.709 512 884.842 512.933 881.776 514.8C878.842 516.667 876.642 518.933 875.176 521.6L836.376 588.8C835.309 590.533 834.776 592.133 834.776 593.6C834.776 596.8 836.642 598.4 840.376 598.4C843.042 598.4 845.842 597.467 848.776 595.6C851.709 593.733 853.976 591.467 855.576 588.8ZM988.87 502.4H1123.27C1126.87 502.4 1128.67 504 1128.67 507.2C1128.67 508.667 1128.2 510.267 1127.27 512L1077.27 598.4C1075.8 601.067 1073.54 603.333 1070.47 605.2C1067.54 607.067 1064.8 608 1062.27 608H927.87C924.136 608 922.27 606.4 922.27 603.2C922.27 601.733 922.736 600.133 923.67 598.4L945.87 560C947.47 557.333 949.736 555.067 952.67 553.2C955.603 551.333 958.403 550.4 961.07 550.4H1028.27C1030.94 550.4 1033.74 549.467 1036.67 547.6C1039.6 545.733 1041.87 543.467 1043.47 540.8L1054.47 521.6C1055.4 519.867 1055.87 518.267 1055.87 516.8C1055.87 513.6 1054.07 512 1050.47 512C1047.8 512 1045 512.933 1042.07 514.8C1039.14 516.667 1036.87 518.933 1035.27 521.6L1029.67 531.2C1028.2 533.867 1025.94 536.133 1022.87 538C1019.94 539.867 1017.2 540.8 1014.67 540.8H966.67C962.936 540.8 961.07 539.2 961.07 536C961.07 534.533 961.536 532.933 962.47 531.2L973.67 512C975.136 509.333 977.336 507.067 980.27 505.2C983.336 503.333 986.203 502.4 988.87 502.4ZM1015.67 588.8L1026.87 569.6C1027.8 567.867 1028.27 566.267 1028.27 564.8C1028.27 561.6 1026.4 560 1022.67 560C1020 560 1017.2 560.933 1014.27 562.8C1011.34 564.667 1009.14 566.933 1007.67 569.6L996.47 588.8C995.536 590.533 995.07 592.133 995.07 593.6C995.07 596.8 996.87 598.4 1000.47 598.4C1003.14 598.4 1005.94 597.467 1008.87 595.6C1011.94 593.733 1014.2 591.467 1015.67 588.8ZM1249.36 616.4L1303.96 521.6C1304.89 519.867 1305.36 518.267 1305.36 516.8C1305.36 513.6 1303.56 512 1299.96 512C1297.29 512 1294.49 512.933 1291.56 514.8C1288.62 516.667 1286.36 518.933 1284.76 521.6L1240.36 598.4C1238.89 601.067 1236.62 603.333 1233.56 605.2C1230.62 607.067 1227.89 608 1225.36 608H1177.36C1173.62 608 1171.76 606.4 1171.76 603.2C1171.76 601.733 1172.22 600.133 1173.16 598.4L1217.56 521.6C1218.49 519.867 1218.96 518.267 1218.96 516.8C1218.96 513.6 1217.16 512 1213.56 512C1210.89 512 1208.09 512.933 1205.16 514.8C1202.22 516.667 1199.96 518.933 1198.36 521.6L1153.96 598.4C1152.49 601.067 1150.22 603.333 1147.16 605.2C1144.22 607.067 1141.49 608 1138.96 608H1090.96C1087.22 608 1085.36 606.4 1085.36 603.2C1085.36 601.733 1085.82 600.133 1086.76 598.4L1136.76 512C1138.22 509.333 1140.42 507.067 1143.36 505.2C1146.42 503.333 1149.29 502.4 1151.96 502.4H1372.76C1376.36 502.4 1378.16 504 1378.16 507.2C1378.16 508.667 1377.69 510.267 1376.76 512L1283.96 672.8C1281.96 676.267 1279.82 678 1277.56 678C1276.36 678 1275.42 677.333 1274.76 676L1248.16 631C1247.36 629.533 1246.96 627.667 1246.96 625.4C1246.96 622.067 1247.76 619.067 1249.36 616.4Z"/>
</mask>
<path d="M765.937 540.8H717.937C714.203 540.8 712.337 539.2 712.337 536C712.337 534.533 712.87 532.933 713.937 531.2L719.337 521.6C720.403 519.867 720.937 518.267 720.937 516.8C720.937 513.6 719.07 512 715.337 512C712.67 512 709.87 512.933 706.937 514.8C704.003 516.667 701.737 518.933 700.137 521.6L689.137 540.8C688.203 542.533 687.737 544.133 687.737 545.6C687.737 548.8 689.537 550.4 693.137 550.4H760.337C764.07 550.4 765.937 552 765.937 555.2C765.937 556.667 765.403 558.267 764.337 560L742.337 598.4C740.737 601.067 738.47 603.333 735.537 605.2C732.603 607.067 729.803 608 727.137 608H679.137C676.47 608 673.67 608.933 670.737 610.8C667.803 612.667 665.537 614.933 663.937 617.6L641.737 656C639.737 659.467 637.67 661.2 635.537 661.2C634.337 661.2 633.337 660.6 632.537 659.4L605.937 614.2C603.537 610.067 599.137 608 592.737 608C589.003 608 587.137 606.4 587.137 603.2C587.137 601.733 587.67 600.133 588.737 598.4L599.737 579.2C601.203 576.533 603.403 574.267 606.337 572.4C609.403 570.533 612.27 569.6 614.937 569.6H662.937C666.537 569.6 668.337 571.2 668.337 574.4C668.337 575.867 667.87 577.467 666.937 579.2L661.337 588.8C660.403 590.533 659.937 592.133 659.937 593.6C659.937 596.8 661.803 598.4 665.537 598.4C668.07 598.4 670.803 597.467 673.737 595.6C676.803 593.733 679.07 591.467 680.537 588.8L691.737 569.6C692.67 567.867 693.137 566.267 693.137 564.8C693.137 561.6 691.27 560 687.537 560H620.337C616.737 560 614.937 558.4 614.937 555.2C614.937 553.733 615.403 552.133 616.337 550.4L638.537 512C640.003 509.333 642.203 507.067 645.137 505.2C648.203 503.333 651.07 502.4 653.737 502.4H701.737C704.403 502.4 707.203 501.467 710.137 499.6C713.07 497.733 715.27 495.467 716.737 492.8L738.937 454.4C740.937 450.933 743.07 449.2 745.337 449.2C746.537 449.2 747.47 449.8 748.137 451L774.737 496.2C777.27 500.333 781.737 502.4 788.137 502.4C791.737 502.4 793.537 504 793.537 507.2C793.537 508.667 793.07 510.267 792.137 512L781.137 531.2C779.537 533.867 777.27 536.133 774.337 538C771.403 539.867 768.603 540.8 765.937 540.8ZM828.576 502.4H962.976C966.709 502.4 968.576 504 968.576 507.2C968.576 508.667 968.109 510.267 967.176 512L917.176 598.4C915.709 601.067 913.442 603.333 910.376 605.2C907.442 607.067 904.642 608 901.976 608H834.776C832.242 608 829.442 608.933 826.376 610.8C823.442 612.667 821.242 614.933 819.776 617.6L787.976 672.8C785.976 676.267 783.842 678 781.576 678C780.376 678 779.376 677.333 778.576 676L752.176 631C751.242 629.533 750.776 627.667 750.776 625.4C750.776 622.067 751.576 619.067 753.176 616.4L813.576 512C815.042 509.333 817.242 507.067 820.176 505.2C823.109 503.333 825.909 502.4 828.576 502.4ZM855.576 588.8L894.376 521.6C895.309 519.867 895.776 518.267 895.776 516.8C895.776 513.6 893.976 512 890.376 512C887.709 512 884.842 512.933 881.776 514.8C878.842 516.667 876.642 518.933 875.176 521.6L836.376 588.8C835.309 590.533 834.776 592.133 834.776 593.6C834.776 596.8 836.642 598.4 840.376 598.4C843.042 598.4 845.842 597.467 848.776 595.6C851.709 593.733 853.976 591.467 855.576 588.8ZM988.87 502.4H1123.27C1126.87 502.4 1128.67 504 1128.67 507.2C1128.67 508.667 1128.2 510.267 1127.27 512L1077.27 598.4C1075.8 601.067 1073.54 603.333 1070.47 605.2C1067.54 607.067 1064.8 608 1062.27 608H927.87C924.136 608 922.27 606.4 922.27 603.2C922.27 601.733 922.736 600.133 923.67 598.4L945.87 560C947.47 557.333 949.736 555.067 952.67 553.2C955.603 551.333 958.403 550.4 961.07 550.4H1028.27C1030.94 550.4 1033.74 549.467 1036.67 547.6C1039.6 545.733 1041.87 543.467 1043.47 540.8L1054.47 521.6C1055.4 519.867 1055.87 518.267 1055.87 516.8C1055.87 513.6 1054.07 512 1050.47 512C1047.8 512 1045 512.933 1042.07 514.8C1039.14 516.667 1036.87 518.933 1035.27 521.6L1029.67 531.2C1028.2 533.867 1025.94 536.133 1022.87 538C1019.94 539.867 1017.2 540.8 1014.67 540.8H966.67C962.936 540.8 961.07 539.2 961.07 536C961.07 534.533 961.536 532.933 962.47 531.2L973.67 512C975.136 509.333 977.336 507.067 980.27 505.2C983.336 503.333 986.203 502.4 988.87 502.4ZM1015.67 588.8L1026.87 569.6C1027.8 567.867 1028.27 566.267 1028.27 564.8C1028.27 561.6 1026.4 560 1022.67 560C1020 560 1017.2 560.933 1014.27 562.8C1011.34 564.667 1009.14 566.933 1007.67 569.6L996.47 588.8C995.536 590.533 995.07 592.133 995.07 593.6C995.07 596.8 996.87 598.4 1000.47 598.4C1003.14 598.4 1005.94 597.467 1008.87 595.6C1011.94 593.733 1014.2 591.467 1015.67 588.8ZM1249.36 616.4L1303.96 521.6C1304.89 519.867 1305.36 518.267 1305.36 516.8C1305.36 513.6 1303.56 512 1299.96 512C1297.29 512 1294.49 512.933 1291.56 514.8C1288.62 516.667 1286.36 518.933 1284.76 521.6L1240.36 598.4C1238.89 601.067 1236.62 603.333 1233.56 605.2C1230.62 607.067 1227.89 608 1225.36 608H1177.36C1173.62 608 1171.76 606.4 1171.76 603.2C1171.76 601.733 1172.22 600.133 1173.16 598.4L1217.56 521.6C1218.49 519.867 1218.96 518.267 1218.96 516.8C1218.96 513.6 1217.16 512 1213.56 512C1210.89 512 1208.09 512.933 1205.16 514.8C1202.22 516.667 1199.96 518.933 1198.36 521.6L1153.96 598.4C1152.49 601.067 1150.22 603.333 1147.16 605.2C1144.22 607.067 1141.49 608 1138.96 608H1090.96C1087.22 608 1085.36 606.4 1085.36 603.2C1085.36 601.733 1085.82 600.133 1086.76 598.4L1136.76 512C1138.22 509.333 1140.42 507.067 1143.36 505.2C1146.42 503.333 1149.29 502.4 1151.96 502.4H1372.76C1376.36 502.4 1378.16 504 1378.16 507.2C1378.16 508.667 1377.69 510.267 1376.76 512L1283.96 672.8C1281.96 676.267 1279.82 678 1277.56 678C1276.36 678 1275.42 677.333 1274.76 676L1248.16 631C1247.36 629.533 1246.96 627.667 1246.96 625.4C1246.96 622.067 1247.76 619.067 1249.36 616.4Z" fill="#FFF8F8"/>
<path d="M713.937 531.2L716.492 532.772L716.523 532.722L716.551 532.671L713.937 531.2ZM719.337 521.6L716.782 520.028L716.751 520.078L716.722 520.129L719.337 521.6ZM700.137 521.6L697.564 520.057L697.549 520.082L697.534 520.109L700.137 521.6ZM689.137 540.8L686.534 539.309L686.514 539.343L686.495 539.378L689.137 540.8ZM764.337 560L761.782 558.428L761.757 558.468L761.734 558.509L764.337 560ZM742.337 598.4L744.909 599.943L744.925 599.918L744.94 599.891L742.337 598.4ZM670.737 610.8L669.126 608.269L669.126 608.269L670.737 610.8ZM663.937 617.6L661.364 616.057L661.352 616.077L661.34 616.098L663.937 617.6ZM641.737 656L639.14 654.498L639.138 654.501L641.737 656ZM632.537 659.4L629.951 660.922L629.994 660.994L630.041 661.064L632.537 659.4ZM605.937 614.2L603.342 615.706L603.347 615.714L603.351 615.722L605.937 614.2ZM588.737 598.4L591.292 599.972L591.316 599.932L591.34 599.891L588.737 598.4ZM599.737 579.2L602.34 580.691L602.353 580.669L602.365 580.646L599.737 579.2ZM606.337 572.4L604.777 569.837L604.751 569.853L604.726 569.869L606.337 572.4ZM666.937 579.2L669.528 580.712L669.554 580.667L669.578 580.622L666.937 579.2ZM661.337 588.8L658.745 587.288L658.72 587.333L658.695 587.378L661.337 588.8ZM673.737 595.6L672.177 593.037L672.151 593.053L672.126 593.069L673.737 595.6ZM680.537 588.8L677.945 587.288L677.926 587.321L677.908 587.354L680.537 588.8ZM691.737 569.6L694.328 571.112L694.354 571.067L694.378 571.022L691.737 569.6ZM616.337 550.4L613.74 548.898L613.717 548.938L613.695 548.978L616.337 550.4ZM638.537 512L641.134 513.502L641.15 513.474L641.165 513.446L638.537 512ZM645.137 505.2L643.577 502.637L643.551 502.653L643.526 502.669L645.137 505.2ZM710.137 499.6L708.526 497.069L708.526 497.069L710.137 499.6ZM716.737 492.8L714.14 491.298L714.123 491.326L714.108 491.354L716.737 492.8ZM738.937 454.4L741.534 455.902L741.535 455.899L738.937 454.4ZM748.137 451L745.514 452.457L745.532 452.489L745.551 452.522L748.137 451ZM774.737 496.2L772.151 497.722L772.165 497.745L772.179 497.768L774.737 496.2ZM792.137 512L794.74 513.491L794.759 513.457L794.778 513.422L792.137 512ZM781.137 531.2L783.709 532.743L783.725 532.718L783.74 532.691L781.137 531.2ZM765.937 540.8V537.8H717.937V540.8V543.8H765.937V540.8ZM717.937 540.8V537.8C716.429 537.8 715.858 537.467 715.689 537.322C715.609 537.253 715.337 537.006 715.337 536H712.337H709.337C709.337 538.194 709.998 540.347 711.784 541.878C713.482 543.333 715.711 543.8 717.937 543.8V540.8ZM712.337 536H715.337C715.337 535.264 715.608 534.209 716.492 532.772L713.937 531.2L711.382 529.628C710.132 531.658 709.337 533.803 709.337 536H712.337ZM713.937 531.2L716.551 532.671L721.951 523.071L719.337 521.6L716.722 520.129L711.322 529.729L713.937 531.2ZM719.337 521.6L721.892 523.172C723.141 521.142 723.937 518.997 723.937 516.8H720.937H717.937C717.937 517.536 717.666 518.591 716.782 520.028L719.337 521.6ZM720.937 516.8H723.937C723.937 514.606 723.275 512.453 721.489 510.922C719.791 509.467 717.562 509 715.337 509V512V515C716.844 515 717.415 515.333 717.584 515.478C717.665 515.547 717.937 515.794 717.937 516.8H720.937ZM715.337 512V509C711.95 509 708.597 510.188 705.326 512.269L706.937 514.8L708.547 517.331C711.143 515.679 713.39 515 715.337 515V512ZM706.937 514.8L705.326 512.269C702.047 514.356 699.431 516.945 697.564 520.057L700.137 521.6L702.709 523.143C704.043 520.921 705.96 518.977 708.547 517.331L706.937 514.8ZM700.137 521.6L697.534 520.109L686.534 539.309L689.137 540.8L691.74 542.291L702.74 523.091L700.137 521.6ZM689.137 540.8L686.495 539.378C685.404 541.405 684.737 543.496 684.737 545.6H687.737H690.737C690.737 544.771 691.003 543.662 691.778 542.222L689.137 540.8ZM687.737 545.6H684.737C684.737 547.76 685.36 549.902 687.094 551.442C688.759 552.923 690.956 553.4 693.137 553.4V550.4V547.4C691.718 547.4 691.214 547.077 691.08 546.958C691.013 546.898 690.737 546.64 690.737 545.6H687.737ZM693.137 550.4V553.4H760.337V550.4V547.4H693.137V550.4ZM760.337 550.4V553.4C761.844 553.4 762.415 553.733 762.584 553.878C762.665 553.947 762.937 554.194 762.937 555.2H765.937H768.937C768.937 553.006 768.275 550.853 766.489 549.322C764.791 547.867 762.562 547.4 760.337 547.4V550.4ZM765.937 555.2H762.937C762.937 555.936 762.666 556.991 761.782 558.428L764.337 560L766.892 561.572C768.141 559.542 768.937 557.397 768.937 555.2H765.937ZM764.337 560L761.734 558.509L739.734 596.909L742.337 598.4L744.94 599.891L766.94 561.491L764.337 560ZM742.337 598.4L739.764 596.857C738.431 599.079 736.513 601.023 733.926 602.669L735.537 605.2L737.147 607.731C740.427 605.644 743.043 603.055 744.909 599.943L742.337 598.4ZM735.537 605.2L733.926 602.669C731.33 604.321 729.083 605 727.137 605V608V611C730.523 611 733.876 609.812 737.147 607.731L735.537 605.2ZM727.137 608V605H679.137V608V611H727.137V608ZM679.137 608V605C675.75 605 672.397 606.188 669.126 608.269L670.737 610.8L672.347 613.331C674.943 611.679 677.19 611 679.137 611V608ZM670.737 610.8L669.126 608.269C665.847 610.356 663.231 612.945 661.364 616.057L663.937 617.6L666.509 619.143C667.843 616.921 669.76 614.977 672.347 613.331L670.737 610.8ZM663.937 617.6L661.34 616.098L639.14 654.498L641.737 656L644.334 657.502L666.534 619.102L663.937 617.6ZM641.737 656L639.138 654.501C637.214 657.837 635.919 658.2 635.537 658.2V661.2V664.2C639.422 664.2 642.26 661.096 644.335 657.499L641.737 656ZM635.537 661.2V658.2C635.489 658.2 635.468 658.194 635.464 658.193C635.46 658.192 635.45 658.189 635.43 658.178C635.39 658.154 635.243 658.052 635.033 657.736L632.537 659.4L630.041 661.064C631.268 662.905 633.122 664.2 635.537 664.2V661.2ZM632.537 659.4L635.122 657.878L608.522 612.678L605.937 614.2L603.351 615.722L629.951 660.922L632.537 659.4ZM605.937 614.2L608.531 612.694C605.415 607.328 599.794 605 592.737 605V608V611C598.479 611 601.658 612.806 603.342 615.706L605.937 614.2ZM592.737 608V605C591.229 605 590.658 604.667 590.489 604.522C590.409 604.453 590.137 604.206 590.137 603.2H587.137H584.137C584.137 605.394 584.798 607.547 586.584 609.078C588.282 610.533 590.511 611 592.737 611V608ZM587.137 603.2H590.137C590.137 602.464 590.408 601.409 591.292 599.972L588.737 598.4L586.182 596.828C584.932 598.858 584.137 601.003 584.137 603.2H587.137ZM588.737 598.4L591.34 599.891L602.34 580.691L599.737 579.2L597.134 577.709L586.134 596.909L588.737 598.4ZM599.737 579.2L602.365 580.646C603.556 578.48 605.378 576.566 607.947 574.931L606.337 572.4L604.726 569.869C601.429 571.967 598.85 574.587 597.108 577.754L599.737 579.2ZM606.337 572.4L607.897 574.963C610.651 573.286 612.979 572.6 614.937 572.6V569.6V566.6C611.561 566.6 608.156 567.781 604.777 569.837L606.337 572.4ZM614.937 569.6V572.6H662.937V569.6V566.6H614.937V569.6ZM662.937 569.6V572.6C664.356 572.6 664.859 572.923 664.994 573.042C665.06 573.102 665.337 573.36 665.337 574.4H668.337H671.337C671.337 572.24 670.713 570.098 668.98 568.558C667.314 567.077 665.118 566.6 662.937 566.6V569.6ZM668.337 574.4H665.337C665.337 575.229 665.071 576.338 664.295 577.778L666.937 579.2L669.578 580.622C670.67 578.595 671.337 576.504 671.337 574.4H668.337ZM666.937 579.2L664.345 577.688L658.745 587.288L661.337 588.8L663.928 590.312L669.528 580.712L666.937 579.2ZM661.337 588.8L658.695 587.378C657.604 589.405 656.937 591.496 656.937 593.6H659.937H662.937C662.937 592.771 663.203 591.662 663.978 590.222L661.337 588.8ZM659.937 593.6H656.937C656.937 595.794 657.598 597.947 659.384 599.478C661.082 600.933 663.311 601.4 665.537 601.4V598.4V595.4C664.029 595.4 663.458 595.067 663.289 594.922C663.209 594.853 662.937 594.606 662.937 593.6H659.937ZM665.537 598.4V601.4C668.816 601.4 672.106 600.194 675.347 598.131L673.737 595.6L672.126 593.069C669.501 594.74 667.324 595.4 665.537 595.4V598.4ZM673.737 595.6L675.297 598.163C678.73 596.073 681.404 593.448 683.165 590.246L680.537 588.8L677.908 587.354C676.736 589.485 674.877 591.394 672.177 593.037L673.737 595.6ZM680.537 588.8L683.128 590.312L694.328 571.112L691.737 569.6L689.145 568.088L677.945 587.288L680.537 588.8ZM691.737 569.6L694.378 571.022C695.47 568.995 696.137 566.904 696.137 564.8H693.137H690.137C690.137 565.629 689.871 566.738 689.095 568.178L691.737 569.6ZM693.137 564.8H696.137C696.137 562.606 695.475 560.453 693.689 558.922C691.991 557.467 689.762 557 687.537 557V560V563C689.044 563 689.615 563.333 689.784 563.478C689.865 563.547 690.137 563.794 690.137 564.8H693.137ZM687.537 560V557H620.337V560V563H687.537V560ZM620.337 560V557C618.918 557 618.414 556.677 618.28 556.558C618.213 556.498 617.937 556.24 617.937 555.2H614.937H611.937C611.937 557.36 612.56 559.502 614.294 561.042C615.959 562.523 618.156 563 620.337 563V560ZM614.937 555.2H617.937C617.937 554.371 618.203 553.262 618.978 551.822L616.337 550.4L613.695 548.978C612.604 551.005 611.937 553.096 611.937 555.2H614.937ZM616.337 550.4L618.934 551.902L641.134 513.502L638.537 512L635.94 510.498L613.74 548.898L616.337 550.4ZM638.537 512L641.165 513.446C642.356 511.28 644.178 509.366 646.747 507.731L645.137 505.2L643.526 502.669C640.229 504.767 637.65 507.387 635.908 510.554L638.537 512ZM645.137 505.2L646.697 507.763C649.451 506.086 651.779 505.4 653.737 505.4V502.4V499.4C650.361 499.4 646.956 500.581 643.577 502.637L645.137 505.2ZM653.737 502.4V505.4H701.737V502.4V499.4H653.737V502.4ZM701.737 502.4V505.4C705.123 505.4 708.476 504.212 711.747 502.131L710.137 499.6L708.526 497.069C705.93 498.721 703.683 499.4 701.737 499.4V502.4ZM710.137 499.6L711.747 502.131C715.045 500.033 717.623 497.413 719.365 494.246L716.737 492.8L714.108 491.354C712.917 493.52 711.096 495.434 708.526 497.069L710.137 499.6ZM716.737 492.8L719.334 494.302L741.534 455.902L738.937 454.4L736.34 452.898L714.14 491.298L716.737 492.8ZM738.937 454.4L741.535 455.899C743.414 452.643 744.771 452.2 745.337 452.2V449.2V446.2C741.369 446.2 738.459 449.224 736.338 452.901L738.937 454.4ZM745.337 449.2V452.2C745.385 452.2 745.393 452.206 745.374 452.2C745.354 452.195 745.331 452.184 745.314 452.174C745.277 452.15 745.365 452.188 745.514 452.457L748.137 451L750.759 449.543C749.655 447.556 747.803 446.2 745.337 446.2V449.2ZM748.137 451L745.551 452.522L772.151 497.722L774.737 496.2L777.322 494.678L750.722 449.478L748.137 451ZM774.737 496.2L772.179 497.768C775.43 503.071 781.071 505.4 788.137 505.4V502.4V499.4C782.403 499.4 779.111 497.595 777.295 494.632L774.737 496.2ZM788.137 502.4V505.4C789.556 505.4 790.059 505.723 790.194 505.842C790.26 505.902 790.537 506.16 790.537 507.2H793.537H796.537C796.537 505.04 795.913 502.898 794.18 501.358C792.514 499.877 790.318 499.4 788.137 499.4V502.4ZM793.537 507.2H790.537C790.537 508.029 790.271 509.138 789.495 510.578L792.137 512L794.778 513.422C795.87 511.395 796.537 509.304 796.537 507.2H793.537ZM792.137 512L789.534 510.509L778.534 529.709L781.137 531.2L783.74 532.691L794.74 513.491L792.137 512ZM781.137 531.2L778.564 529.657C777.231 531.879 775.313 533.823 772.726 535.469L774.337 538L775.947 540.531C779.227 538.444 781.843 535.855 783.709 532.743L781.137 531.2ZM774.337 538L772.726 535.469C770.13 537.121 767.883 537.8 765.937 537.8V540.8V543.8C769.323 543.8 772.676 542.612 775.947 540.531L774.337 538ZM967.176 512L969.772 513.503L969.795 513.463L969.817 513.422L967.176 512ZM917.176 598.4L914.579 596.897L914.563 596.926L914.547 596.954L917.176 598.4ZM910.376 605.2L908.816 602.637L908.79 602.653L908.765 602.669L910.376 605.2ZM826.376 610.8L824.816 608.237L824.79 608.253L824.765 608.269L826.376 610.8ZM819.776 617.6L822.375 619.098L822.39 619.072L822.404 619.046L819.776 617.6ZM787.976 672.8L790.574 674.299L790.575 674.298L787.976 672.8ZM778.576 676L775.988 677.518L775.996 677.531L776.003 677.543L778.576 676ZM752.176 631L754.763 629.482L754.736 629.435L754.707 629.389L752.176 631ZM753.176 616.4L755.748 617.943L755.761 617.923L755.773 617.902L753.176 616.4ZM813.576 512L816.173 513.502L816.189 513.474L816.204 513.446L813.576 512ZM820.176 505.2L818.565 502.669L818.565 502.669L820.176 505.2ZM855.576 588.8L858.148 590.343L858.161 590.322L858.174 590.3L855.576 588.8ZM894.376 521.6L896.974 523.1L896.996 523.062L897.017 523.022L894.376 521.6ZM881.776 514.8L880.216 512.237L880.19 512.253L880.165 512.269L881.776 514.8ZM875.176 521.6L877.774 523.1L877.789 523.073L877.804 523.046L875.176 521.6ZM836.376 588.8L838.931 590.372L838.953 590.336L838.974 590.3L836.376 588.8ZM828.576 502.4V505.4H962.976V502.4V499.4H828.576V502.4ZM962.976 502.4V505.4C964.483 505.4 965.054 505.733 965.223 505.878C965.304 505.947 965.576 506.194 965.576 507.2H968.576H971.576C971.576 505.006 970.914 502.853 969.128 501.322C967.43 499.867 965.201 499.4 962.976 499.4V502.4ZM968.576 507.2H965.576C965.576 508.029 965.31 509.138 964.534 510.578L967.176 512L969.817 513.422C970.909 511.395 971.576 509.304 971.576 507.2H968.576ZM967.176 512L964.579 510.497L914.579 596.897L917.176 598.4L919.772 599.903L969.772 513.503L967.176 512ZM917.176 598.4L914.547 596.954C913.375 599.085 911.516 600.994 908.816 602.637L910.376 605.2L911.936 607.763C915.369 605.673 918.043 603.048 919.804 599.846L917.176 598.4ZM910.376 605.2L908.765 602.669C906.169 604.321 903.923 605 901.976 605V608V611C905.362 611 908.716 609.812 911.986 607.731L910.376 605.2ZM901.976 608V605H834.776V608V611H901.976V608ZM834.776 608V605C831.509 605 828.166 606.198 824.816 608.237L826.376 610.8L827.936 613.363C830.719 611.669 832.976 611 834.776 611V608ZM826.376 610.8L824.765 608.269C821.468 610.367 818.889 612.987 817.147 616.154L819.776 617.6L822.404 619.046C823.596 616.88 825.417 614.966 827.986 613.331L826.376 610.8ZM819.776 617.6L817.176 616.102L785.376 671.302L787.976 672.8L790.575 674.298L822.375 619.098L819.776 617.6ZM787.976 672.8L785.377 671.301C783.498 674.557 782.141 675 781.576 675V678V681C785.544 681 788.453 677.976 790.574 674.299L787.976 672.8ZM781.576 678V675C781.558 675 781.564 674.998 781.583 675.004C781.603 675.01 781.606 675.015 781.59 675.004C781.551 674.978 781.384 674.85 781.148 674.457L778.576 676L776.003 677.543C777.162 679.475 779.009 681 781.576 681V678ZM778.576 676L781.163 674.482L754.763 629.482L752.176 631L749.588 632.518L775.988 677.518L778.576 676ZM752.176 631L754.707 629.389C754.16 628.53 753.776 627.267 753.776 625.4H750.776H747.776C747.776 628.067 748.325 630.537 749.645 632.611L752.176 631ZM750.776 625.4H753.776C753.776 622.57 754.448 620.11 755.748 617.943L753.176 616.4L750.603 614.857C748.703 618.023 747.776 621.564 747.776 625.4H750.776ZM753.176 616.4L755.773 617.902L816.173 513.502L813.576 512L810.979 510.498L750.579 614.898L753.176 616.4ZM813.576 512L816.204 513.446C817.396 511.28 819.217 509.366 821.786 507.731L820.176 505.2L818.565 502.669C815.268 504.767 812.689 507.387 810.947 510.554L813.576 512ZM820.176 505.2L821.786 507.731C824.382 506.079 826.629 505.4 828.576 505.4V502.4V499.4C825.189 499.4 821.836 500.588 818.565 502.669L820.176 505.2ZM855.576 588.8L858.174 590.3L896.974 523.1L894.376 521.6L891.778 520.1L852.978 587.3L855.576 588.8ZM894.376 521.6L897.017 523.022C898.109 520.995 898.776 518.904 898.776 516.8H895.776H892.776C892.776 517.629 892.51 518.738 891.734 520.178L894.376 521.6ZM895.776 516.8H898.776C898.776 514.64 898.152 512.498 896.419 510.958C894.753 509.477 892.557 509 890.376 509V512V515C891.795 515 892.299 515.323 892.433 515.442C892.5 515.502 892.776 515.76 892.776 516.8H895.776ZM890.376 512V509C887 509 883.595 510.181 880.216 512.237L881.776 514.8L883.336 517.363C886.09 515.686 888.418 515 890.376 515V512ZM881.776 514.8L880.165 512.269C876.868 514.367 874.289 516.987 872.547 520.154L875.176 521.6L877.804 523.046C878.996 520.88 880.817 518.966 883.386 517.331L881.776 514.8ZM875.176 521.6L872.578 520.1L833.778 587.3L836.376 588.8L838.974 590.3L877.774 523.1L875.176 521.6ZM836.376 588.8L833.821 587.228C832.571 589.258 831.776 591.403 831.776 593.6H834.776H837.776C837.776 592.864 838.047 591.809 838.931 590.372L836.376 588.8ZM834.776 593.6H831.776C831.776 595.794 832.437 597.947 834.223 599.478C835.921 600.933 838.15 601.4 840.376 601.4V598.4V595.4C838.868 595.4 838.297 595.067 838.128 594.922C838.048 594.853 837.776 594.606 837.776 593.6H834.776ZM840.376 598.4V601.4C843.762 601.4 847.116 600.212 850.386 598.131L848.776 595.6L847.165 593.069C844.569 594.721 842.323 595.4 840.376 595.4V598.4ZM848.776 595.6L850.386 598.131C853.666 596.044 856.282 593.455 858.148 590.343L855.576 588.8L853.003 587.257C851.67 589.479 849.752 591.423 847.165 593.069L848.776 595.6ZM1127.27 512L1129.87 513.503L1129.89 513.463L1129.91 513.422L1127.27 512ZM1077.27 598.4L1074.67 596.897L1074.66 596.926L1074.64 596.954L1077.27 598.4ZM1070.47 605.2L1068.91 602.637L1068.88 602.653L1068.86 602.669L1070.47 605.2ZM923.67 598.4L921.072 596.898L921.05 596.938L921.028 596.978L923.67 598.4ZM945.87 560L943.297 558.457L943.285 558.477L943.272 558.498L945.87 560ZM952.67 553.2L951.059 550.669L951.059 550.669L952.67 553.2ZM1043.47 540.8L1046.04 542.343L1046.06 542.318L1046.07 542.291L1043.47 540.8ZM1054.47 521.6L1057.07 523.091L1057.09 523.057L1057.11 523.022L1054.47 521.6ZM1035.27 521.6L1032.7 520.057L1032.69 520.072L1032.68 520.088L1035.27 521.6ZM1029.67 531.2L1027.08 529.688L1027.06 529.721L1027.04 529.754L1029.67 531.2ZM1022.87 538L1021.31 535.437L1021.28 535.453L1021.26 535.469L1022.87 538ZM962.47 531.2L959.878 529.688L959.852 529.733L959.828 529.778L962.47 531.2ZM973.67 512L976.261 513.512L976.28 513.479L976.298 513.446L973.67 512ZM980.27 505.2L978.71 502.637L978.684 502.653L978.659 502.669L980.27 505.2ZM1015.67 588.8L1013.08 587.288L1013.06 587.321L1013.04 587.354L1015.67 588.8ZM1026.87 569.6L1029.46 571.112L1029.49 571.067L1029.51 571.022L1026.87 569.6ZM1014.27 562.8L1012.66 560.269L1012.66 560.269L1014.27 562.8ZM1007.67 569.6L1010.26 571.112L1010.28 571.079L1010.3 571.046L1007.67 569.6ZM996.47 588.8L993.878 587.288L993.852 587.333L993.828 587.378L996.47 588.8ZM1008.87 595.6L1007.31 593.037L1007.28 593.053L1007.26 593.069L1008.87 595.6ZM988.87 502.4V505.4H1123.27V502.4V499.4H988.87V502.4ZM1123.27 502.4V505.4C1124.69 505.4 1125.19 505.723 1125.33 505.842C1125.39 505.902 1125.67 506.16 1125.67 507.2H1128.67H1131.67C1131.67 505.04 1131.05 502.898 1129.31 501.358C1127.65 499.877 1125.45 499.4 1123.27 499.4V502.4ZM1128.67 507.2H1125.67C1125.67 508.029 1125.4 509.138 1124.63 510.578L1127.27 512L1129.91 513.422C1131 511.395 1131.67 509.304 1131.67 507.2H1128.67ZM1127.27 512L1124.67 510.497L1074.67 596.897L1077.27 598.4L1079.87 599.903L1129.87 513.503L1127.27 512ZM1077.27 598.4L1074.64 596.954C1073.47 599.085 1071.61 600.994 1068.91 602.637L1070.47 605.2L1072.03 607.763C1075.46 605.673 1078.14 603.048 1079.9 599.846L1077.27 598.4ZM1070.47 605.2L1068.86 602.669C1066.23 604.34 1064.06 605 1062.27 605V608V611C1065.55 611 1068.84 609.794 1072.08 607.731L1070.47 605.2ZM1062.27 608V605H927.87V608V611H1062.27V608ZM927.87 608V605C926.362 605 925.791 604.667 925.622 604.522C925.541 604.453 925.27 604.206 925.27 603.2H922.27H919.27C919.27 605.394 919.931 607.547 921.717 609.078C923.415 610.533 925.644 611 927.87 611V608ZM922.27 603.2H925.27C925.27 602.371 925.536 601.262 926.311 599.822L923.67 598.4L921.028 596.978C919.937 599.005 919.27 601.096 919.27 603.2H922.27ZM923.67 598.4L926.267 599.902L948.467 561.502L945.87 560L943.272 558.498L921.072 596.898L923.67 598.4ZM945.87 560L948.442 561.543C949.775 559.321 951.693 557.377 954.28 555.731L952.67 553.2L951.059 550.669C947.78 552.756 945.164 555.345 943.297 558.457L945.87 560ZM952.67 553.2L954.28 555.731C956.876 554.079 959.123 553.4 961.07 553.4V550.4V547.4C957.683 547.4 954.33 548.588 951.059 550.669L952.67 553.2ZM961.07 550.4V553.4H1028.27V550.4V547.4H961.07V550.4ZM1028.27 550.4V553.4C1031.66 553.4 1035.01 552.212 1038.28 550.131L1036.67 547.6L1035.06 545.069C1032.46 546.721 1030.22 547.4 1028.27 547.4V550.4ZM1036.67 547.6L1038.28 550.131C1041.56 548.044 1044.18 545.455 1046.04 542.343L1043.47 540.8L1040.9 539.257C1039.56 541.479 1037.65 543.423 1035.06 545.069L1036.67 547.6ZM1043.47 540.8L1046.07 542.291L1057.07 523.091L1054.47 521.6L1051.87 520.109L1040.87 539.309L1043.47 540.8ZM1054.47 521.6L1057.11 523.022C1058.2 520.995 1058.87 518.904 1058.87 516.8H1055.87H1052.87C1052.87 517.629 1052.6 518.738 1051.83 520.178L1054.47 521.6ZM1055.87 516.8H1058.87C1058.87 514.64 1058.25 512.498 1056.51 510.958C1054.85 509.477 1052.65 509 1050.47 509V512V515C1051.89 515 1052.39 515.323 1052.53 515.442C1052.59 515.502 1052.87 515.76 1052.87 516.8H1055.87ZM1050.47 512V509C1047.08 509 1043.73 510.188 1040.46 512.269L1042.07 514.8L1043.68 517.331C1046.28 515.679 1048.52 515 1050.47 515V512ZM1042.07 514.8L1040.46 512.269C1037.18 514.356 1034.56 516.945 1032.7 520.057L1035.27 521.6L1037.84 523.143C1039.18 520.921 1041.09 518.977 1043.68 517.331L1042.07 514.8ZM1035.27 521.6L1032.68 520.088L1027.08 529.688L1029.67 531.2L1032.26 532.712L1037.86 523.112L1035.27 521.6ZM1029.67 531.2L1027.04 529.754C1025.87 531.885 1024.01 533.794 1021.31 535.437L1022.87 538L1024.43 540.563C1027.86 538.473 1030.54 535.848 1032.3 532.646L1029.67 531.2ZM1022.87 538L1021.26 535.469C1018.63 537.14 1016.46 537.8 1014.67 537.8V540.8V543.8C1017.95 543.8 1021.24 542.594 1024.48 540.531L1022.87 538ZM1014.67 540.8V537.8H966.67V540.8V543.8H1014.67V540.8ZM966.67 540.8V537.8C965.162 537.8 964.591 537.467 964.422 537.322C964.341 537.253 964.07 537.006 964.07 536H961.07H958.07C958.07 538.194 958.731 540.347 960.517 541.878C962.215 543.333 964.444 543.8 966.67 543.8V540.8ZM961.07 536H964.07C964.07 535.171 964.336 534.062 965.111 532.622L962.47 531.2L959.828 529.778C958.737 531.805 958.07 533.896 958.07 536H961.07ZM962.47 531.2L965.061 532.712L976.261 513.512L973.67 512L971.078 510.488L959.878 529.688L962.47 531.2ZM973.67 512L976.298 513.446C977.489 511.28 979.311 509.366 981.88 507.731L980.27 505.2L978.659 502.669C975.362 504.767 972.783 507.387 971.041 510.554L973.67 512ZM980.27 505.2L981.829 507.763C984.584 506.086 986.912 505.4 988.87 505.4V502.4V499.4C985.494 499.4 982.089 500.581 978.71 502.637L980.27 505.2ZM1015.67 588.8L1018.26 590.312L1029.46 571.112L1026.87 569.6L1024.28 568.088L1013.08 587.288L1015.67 588.8ZM1026.87 569.6L1029.51 571.022C1030.6 568.995 1031.27 566.904 1031.27 564.8H1028.27H1025.27C1025.27 565.629 1025 566.738 1024.23 568.178L1026.87 569.6ZM1028.27 564.8H1031.27C1031.27 562.606 1030.61 560.453 1028.82 558.922C1027.12 557.467 1024.9 557 1022.67 557V560V563C1024.18 563 1024.75 563.333 1024.92 563.478C1025 563.547 1025.27 563.794 1025.27 564.8H1028.27ZM1022.67 560V557C1019.28 557 1015.93 558.188 1012.66 560.269L1014.27 562.8L1015.88 565.331C1018.48 563.679 1020.72 563 1022.67 563V560ZM1014.27 562.8L1012.66 560.269C1009.36 562.367 1006.78 564.987 1005.04 568.154L1007.67 569.6L1010.3 571.046C1011.49 568.88 1013.31 566.966 1015.88 565.331L1014.27 562.8ZM1007.67 569.6L1005.08 568.088L993.878 587.288L996.47 588.8L999.061 590.312L1010.26 571.112L1007.67 569.6ZM996.47 588.8L993.828 587.378C992.737 589.405 992.07 591.496 992.07 593.6H995.07H998.07C998.07 592.771 998.336 591.662 999.111 590.222L996.47 588.8ZM995.07 593.6H992.07C992.07 595.76 992.693 597.902 994.426 599.442C996.092 600.923 998.288 601.4 1000.47 601.4V598.4V595.4C999.051 595.4 998.547 595.077 998.413 594.958C998.346 594.898 998.07 594.64 998.07 593.6H995.07ZM1000.47 598.4V601.4C1003.86 601.4 1007.21 600.212 1010.48 598.131L1008.87 595.6L1007.26 593.069C1004.66 594.721 1002.42 595.4 1000.47 595.4V598.4ZM1008.87 595.6L1010.43 598.163C1013.86 596.073 1016.54 593.448 1018.3 590.246L1015.67 588.8L1013.04 587.354C1011.87 589.485 1010.01 591.394 1007.31 593.037L1008.87 595.6ZM1249.36 616.4L1251.93 617.943L1251.94 617.921L1251.96 617.897L1249.36 616.4ZM1303.96 521.6L1306.56 523.097L1306.58 523.06L1306.6 523.022L1303.96 521.6ZM1291.56 514.8L1289.94 512.269L1289.94 512.269L1291.56 514.8ZM1284.76 521.6L1282.18 520.057L1282.17 520.077L1282.16 520.098L1284.76 521.6ZM1240.36 598.4L1237.76 596.898L1237.74 596.926L1237.73 596.954L1240.36 598.4ZM1233.56 605.2L1232 602.637L1231.97 602.653L1231.94 602.669L1233.56 605.2ZM1173.16 598.4L1170.56 596.898L1170.54 596.938L1170.51 596.978L1173.16 598.4ZM1217.56 521.6L1220.15 523.102L1220.18 523.062L1220.2 523.022L1217.56 521.6ZM1198.36 521.6L1195.78 520.057L1195.77 520.077L1195.76 520.098L1198.36 521.6ZM1153.96 598.4L1151.36 596.898L1151.34 596.926L1151.33 596.954L1153.96 598.4ZM1147.16 605.2L1145.6 602.637L1145.57 602.653L1145.54 602.669L1147.16 605.2ZM1086.76 598.4L1084.16 596.897L1084.14 596.937L1084.11 596.978L1086.76 598.4ZM1136.76 512L1139.35 513.503L1139.37 513.474L1139.38 513.446L1136.76 512ZM1143.36 505.2L1141.8 502.637L1141.77 502.653L1141.74 502.669L1143.36 505.2ZM1376.76 512L1379.35 513.5L1379.38 513.461L1379.4 513.422L1376.76 512ZM1283.96 672.8L1281.36 671.3L1281.36 671.301L1283.96 672.8ZM1274.76 676L1277.44 674.658L1277.39 674.564L1277.34 674.473L1274.76 676ZM1248.16 631L1245.52 632.437L1245.55 632.482L1245.57 632.527L1248.16 631ZM1249.36 616.4L1251.96 617.897L1306.56 523.097L1303.96 521.6L1301.36 520.103L1246.76 614.903L1249.36 616.4ZM1303.96 521.6L1306.6 523.022C1307.69 520.995 1308.36 518.904 1308.36 516.8H1305.36H1302.36C1302.36 517.629 1302.09 518.738 1301.31 520.178L1303.96 521.6ZM1305.36 516.8H1308.36C1308.36 514.64 1307.73 512.498 1306 510.958C1304.33 509.477 1302.14 509 1299.96 509V512V515C1301.37 515 1301.88 515.323 1302.01 515.442C1302.08 515.502 1302.36 515.76 1302.36 516.8H1305.36ZM1299.96 512V509C1296.57 509 1293.22 510.188 1289.94 512.269L1291.56 514.8L1293.17 517.331C1295.76 515.679 1298.01 515 1299.96 515V512ZM1291.56 514.8L1289.94 512.269C1286.67 514.356 1284.05 516.945 1282.18 520.057L1284.76 521.6L1287.33 523.143C1288.66 520.921 1290.58 518.977 1293.17 517.331L1291.56 514.8ZM1284.76 521.6L1282.16 520.098L1237.76 596.898L1240.36 598.4L1242.95 599.902L1287.35 523.102L1284.76 521.6ZM1240.36 598.4L1237.73 596.954C1236.55 599.085 1234.7 600.994 1232 602.637L1233.56 605.2L1235.12 607.763C1238.55 605.673 1241.22 603.048 1242.98 599.846L1240.36 598.4ZM1233.56 605.2L1231.94 602.669C1229.32 604.34 1227.14 605 1225.36 605V608V611C1228.63 611 1231.92 609.794 1235.17 607.731L1233.56 605.2ZM1225.36 608V605H1177.36V608V611H1225.36V608ZM1177.36 608V605C1175.85 605 1175.28 604.667 1175.11 604.522C1175.03 604.453 1174.76 604.206 1174.76 603.2H1171.76H1168.76C1168.76 605.394 1169.42 607.547 1171.2 609.078C1172.9 610.533 1175.13 611 1177.36 611V608ZM1171.76 603.2H1174.76C1174.76 602.371 1175.02 601.262 1175.8 599.822L1173.16 598.4L1170.51 596.978C1169.42 599.005 1168.76 601.096 1168.76 603.2H1171.76ZM1173.16 598.4L1175.75 599.902L1220.15 523.102L1217.56 521.6L1214.96 520.098L1170.56 596.898L1173.16 598.4ZM1217.56 521.6L1220.2 523.022C1221.29 520.995 1221.96 518.904 1221.96 516.8H1218.96H1215.96C1215.96 517.629 1215.69 518.738 1214.91 520.178L1217.56 521.6ZM1218.96 516.8H1221.96C1221.96 514.64 1221.33 512.498 1219.6 510.958C1217.93 509.477 1215.74 509 1213.56 509V512V515C1214.97 515 1215.48 515.323 1215.61 515.442C1215.68 515.502 1215.96 515.76 1215.96 516.8H1218.96ZM1213.56 512V509C1210.17 509 1206.82 510.188 1203.54 512.269L1205.16 514.8L1206.77 517.331C1209.36 515.679 1211.61 515 1213.56 515V512ZM1205.16 514.8L1203.54 512.269C1200.27 514.356 1197.65 516.945 1195.78 520.057L1198.36 521.6L1200.93 523.143C1202.26 520.921 1204.18 518.977 1206.77 517.331L1205.16 514.8ZM1198.36 521.6L1195.76 520.098L1151.36 596.898L1153.96 598.4L1156.55 599.902L1200.95 523.102L1198.36 521.6ZM1153.96 598.4L1151.33 596.954C1150.15 599.085 1148.3 600.994 1145.6 602.637L1147.16 605.2L1148.72 607.763C1152.15 605.673 1154.82 603.048 1156.58 599.846L1153.96 598.4ZM1147.16 605.2L1145.54 602.669C1142.92 604.34 1140.74 605 1138.96 605V608V611C1142.23 611 1145.52 609.794 1148.77 607.731L1147.16 605.2ZM1138.96 608V605H1090.96V608V611H1138.96V608ZM1090.96 608V605C1089.45 605 1088.88 604.667 1088.71 604.522C1088.63 604.453 1088.36 604.206 1088.36 603.2H1085.36H1082.36C1082.36 605.394 1083.02 607.547 1084.8 609.078C1086.5 610.533 1088.73 611 1090.96 611V608ZM1085.36 603.2H1088.36C1088.36 602.371 1088.62 601.262 1089.4 599.822L1086.76 598.4L1084.11 596.978C1083.02 599.005 1082.36 601.096 1082.36 603.2H1085.36ZM1086.76 598.4L1089.35 599.903L1139.35 513.503L1136.76 512L1134.16 510.497L1084.16 596.897L1086.76 598.4ZM1136.76 512L1139.38 513.446C1140.58 511.28 1142.4 509.366 1144.97 507.731L1143.36 505.2L1141.74 502.669C1138.45 504.767 1135.87 507.387 1134.13 510.554L1136.76 512ZM1143.36 505.2L1144.92 507.763C1147.67 506.086 1150 505.4 1151.96 505.4V502.4V499.4C1148.58 499.4 1145.17 500.581 1141.8 502.637L1143.36 505.2ZM1151.96 502.4V505.4H1372.76V502.4V499.4H1151.96V502.4ZM1372.76 502.4V505.4C1374.17 505.4 1374.68 505.723 1374.81 505.842C1374.88 505.902 1375.16 506.16 1375.16 507.2H1378.16H1381.16C1381.16 505.04 1380.53 502.898 1378.8 501.358C1377.13 499.877 1374.94 499.4 1372.76 499.4V502.4ZM1378.16 507.2H1375.16C1375.16 508.029 1374.89 509.138 1374.11 510.578L1376.76 512L1379.4 513.422C1380.49 511.395 1381.16 509.304 1381.16 507.2H1378.16ZM1376.76 512L1374.16 510.5L1281.36 671.3L1283.96 672.8L1286.55 674.3L1379.35 513.5L1376.76 512ZM1283.96 672.8L1281.36 671.301C1279.48 674.557 1278.12 675 1277.56 675V678V681C1281.52 681 1284.43 677.976 1286.55 674.299L1283.96 672.8ZM1277.56 678V675C1277.54 675 1277.56 674.998 1277.6 675.012C1277.65 675.026 1277.68 675.046 1277.7 675.059C1277.73 675.082 1277.62 675.014 1277.44 674.658L1274.76 676L1272.07 677.342C1273.1 679.396 1274.92 681 1277.56 681V678ZM1274.76 676L1277.34 674.473L1250.74 629.473L1248.16 631L1245.57 632.527L1272.17 677.527L1274.76 676ZM1248.16 631L1250.79 629.563C1250.3 628.667 1249.96 627.336 1249.96 625.4H1246.96H1243.96C1243.96 627.997 1244.41 630.4 1245.52 632.437L1248.16 631ZM1246.96 625.4H1249.96C1249.96 622.57 1250.63 620.11 1251.93 617.943L1249.36 616.4L1246.78 614.857C1244.88 618.023 1243.96 621.564 1243.96 625.4H1246.96Z" fill="url(#paint0_linear_513_22)" mask="url(#path-1-outside-1_513_22)"/>
<mask id="path-3-outside-2_513_22" maskUnits="userSpaceOnUse" x="584" y="435" width="798" height="235" fill="black">
<rect fill="white" x="584" y="435" width="798" height="235"/>
<path d="M765.937 529.8H717.937C714.203 529.8 712.337 528.2 712.337 525C712.337 523.533 712.87 521.933 713.937 520.2L719.337 510.6C720.403 508.867 720.937 507.267 720.937 505.8C720.937 502.6 719.07 501 715.337 501C712.67 501 709.87 501.933 706.937 503.8C704.003 505.667 701.737 507.933 700.137 510.6L689.137 529.8C688.203 531.533 687.737 533.133 687.737 534.6C687.737 537.8 689.537 539.4 693.137 539.4H760.337C764.07 539.4 765.937 541 765.937 544.2C765.937 545.667 765.403 547.267 764.337 549L742.337 587.4C740.737 590.067 738.47 592.333 735.537 594.2C732.603 596.067 729.803 597 727.137 597H679.137C676.47 597 673.67 597.933 670.737 599.8C667.803 601.667 665.537 603.933 663.937 606.6L641.737 645C639.737 648.467 637.67 650.2 635.537 650.2C634.337 650.2 633.337 649.6 632.537 648.4L605.937 603.2C603.537 599.067 599.137 597 592.737 597C589.003 597 587.137 595.4 587.137 592.2C587.137 590.733 587.67 589.133 588.737 587.4L599.737 568.2C601.203 565.533 603.403 563.267 606.337 561.4C609.403 559.533 612.27 558.6 614.937 558.6H662.937C666.537 558.6 668.337 560.2 668.337 563.4C668.337 564.867 667.87 566.467 666.937 568.2L661.337 577.8C660.403 579.533 659.937 581.133 659.937 582.6C659.937 585.8 661.803 587.4 665.537 587.4C668.07 587.4 670.803 586.467 673.737 584.6C676.803 582.733 679.07 580.467 680.537 577.8L691.737 558.6C692.67 556.867 693.137 555.267 693.137 553.8C693.137 550.6 691.27 549 687.537 549H620.337C616.737 549 614.937 547.4 614.937 544.2C614.937 542.733 615.403 541.133 616.337 539.4L638.537 501C640.003 498.333 642.203 496.067 645.137 494.2C648.203 492.333 651.07 491.4 653.737 491.4H701.737C704.403 491.4 707.203 490.467 710.137 488.6C713.07 486.733 715.27 484.467 716.737 481.8L738.937 443.4C740.937 439.933 743.07 438.2 745.337 438.2C746.537 438.2 747.47 438.8 748.137 440L774.737 485.2C777.27 489.333 781.737 491.4 788.137 491.4C791.737 491.4 793.537 493 793.537 496.2C793.537 497.667 793.07 499.267 792.137 501L781.137 520.2C779.537 522.867 777.27 525.133 774.337 527C771.403 528.867 768.603 529.8 765.937 529.8ZM828.576 491.4H962.976C966.709 491.4 968.576 493 968.576 496.2C968.576 497.667 968.109 499.267 967.176 501L917.176 587.4C915.709 590.067 913.442 592.333 910.376 594.2C907.442 596.067 904.642 597 901.976 597H834.776C832.242 597 829.442 597.933 826.376 599.8C823.442 601.667 821.242 603.933 819.776 606.6L787.976 661.8C785.976 665.267 783.842 667 781.576 667C780.376 667 779.376 666.333 778.576 665L752.176 620C751.242 618.533 750.776 616.667 750.776 614.4C750.776 611.067 751.576 608.067 753.176 605.4L813.576 501C815.042 498.333 817.242 496.067 820.176 494.2C823.109 492.333 825.909 491.4 828.576 491.4ZM855.576 577.8L894.376 510.6C895.309 508.867 895.776 507.267 895.776 505.8C895.776 502.6 893.976 501 890.376 501C887.709 501 884.842 501.933 881.776 503.8C878.842 505.667 876.642 507.933 875.176 510.6L836.376 577.8C835.309 579.533 834.776 581.133 834.776 582.6C834.776 585.8 836.642 587.4 840.376 587.4C843.042 587.4 845.842 586.467 848.776 584.6C851.709 582.733 853.976 580.467 855.576 577.8ZM988.87 491.4H1123.27C1126.87 491.4 1128.67 493 1128.67 496.2C1128.67 497.667 1128.2 499.267 1127.27 501L1077.27 587.4C1075.8 590.067 1073.54 592.333 1070.47 594.2C1067.54 596.067 1064.8 597 1062.27 597H927.87C924.136 597 922.27 595.4 922.27 592.2C922.27 590.733 922.736 589.133 923.67 587.4L945.87 549C947.47 546.333 949.736 544.067 952.67 542.2C955.603 540.333 958.403 539.4 961.07 539.4H1028.27C1030.94 539.4 1033.74 538.467 1036.67 536.6C1039.6 534.733 1041.87 532.467 1043.47 529.8L1054.47 510.6C1055.4 508.867 1055.87 507.267 1055.87 505.8C1055.87 502.6 1054.07 501 1050.47 501C1047.8 501 1045 501.933 1042.07 503.8C1039.14 505.667 1036.87 507.933 1035.27 510.6L1029.67 520.2C1028.2 522.867 1025.94 525.133 1022.87 527C1019.94 528.867 1017.2 529.8 1014.67 529.8H966.67C962.936 529.8 961.07 528.2 961.07 525C961.07 523.533 961.536 521.933 962.47 520.2L973.67 501C975.136 498.333 977.336 496.067 980.27 494.2C983.336 492.333 986.203 491.4 988.87 491.4ZM1015.67 577.8L1026.87 558.6C1027.8 556.867 1028.27 555.267 1028.27 553.8C1028.27 550.6 1026.4 549 1022.67 549C1020 549 1017.2 549.933 1014.27 551.8C1011.34 553.667 1009.14 555.933 1007.67 558.6L996.47 577.8C995.536 579.533 995.07 581.133 995.07 582.6C995.07 585.8 996.87 587.4 1000.47 587.4C1003.14 587.4 1005.94 586.467 1008.87 584.6C1011.94 582.733 1014.2 580.467 1015.67 577.8ZM1249.36 605.4L1303.96 510.6C1304.89 508.867 1305.36 507.267 1305.36 505.8C1305.36 502.6 1303.56 501 1299.96 501C1297.29 501 1294.49 501.933 1291.56 503.8C1288.62 505.667 1286.36 507.933 1284.76 510.6L1240.36 587.4C1238.89 590.067 1236.62 592.333 1233.56 594.2C1230.62 596.067 1227.89 597 1225.36 597H1177.36C1173.62 597 1171.76 595.4 1171.76 592.2C1171.76 590.733 1172.22 589.133 1173.16 587.4L1217.56 510.6C1218.49 508.867 1218.96 507.267 1218.96 505.8C1218.96 502.6 1217.16 501 1213.56 501C1210.89 501 1208.09 501.933 1205.16 503.8C1202.22 505.667 1199.96 507.933 1198.36 510.6L1153.96 587.4C1152.49 590.067 1150.22 592.333 1147.16 594.2C1144.22 596.067 1141.49 597 1138.96 597H1090.96C1087.22 597 1085.36 595.4 1085.36 592.2C1085.36 590.733 1085.82 589.133 1086.76 587.4L1136.76 501C1138.22 498.333 1140.42 496.067 1143.36 494.2C1146.42 492.333 1149.29 491.4 1151.96 491.4H1372.76C1376.36 491.4 1378.16 493 1378.16 496.2C1378.16 497.667 1377.69 499.267 1376.76 501L1283.96 661.8C1281.96 665.267 1279.82 667 1277.56 667C1276.36 667 1275.42 666.333 1274.76 665L1248.16 620C1247.36 618.533 1246.96 616.667 1246.96 614.4C1246.96 611.067 1247.76 608.067 1249.36 605.4Z"/>
</mask>
<path d="M765.937 529.8H717.937C714.203 529.8 712.337 528.2 712.337 525C712.337 523.533 712.87 521.933 713.937 520.2L719.337 510.6C720.403 508.867 720.937 507.267 720.937 505.8C720.937 502.6 719.07 501 715.337 501C712.67 501 709.87 501.933 706.937 503.8C704.003 505.667 701.737 507.933 700.137 510.6L689.137 529.8C688.203 531.533 687.737 533.133 687.737 534.6C687.737 537.8 689.537 539.4 693.137 539.4H760.337C764.07 539.4 765.937 541 765.937 544.2C765.937 545.667 765.403 547.267 764.337 549L742.337 587.4C740.737 590.067 738.47 592.333 735.537 594.2C732.603 596.067 729.803 597 727.137 597H679.137C676.47 597 673.67 597.933 670.737 599.8C667.803 601.667 665.537 603.933 663.937 606.6L641.737 645C639.737 648.467 637.67 650.2 635.537 650.2C634.337 650.2 633.337 649.6 632.537 648.4L605.937 603.2C603.537 599.067 599.137 597 592.737 597C589.003 597 587.137 595.4 587.137 592.2C587.137 590.733 587.67 589.133 588.737 587.4L599.737 568.2C601.203 565.533 603.403 563.267 606.337 561.4C609.403 559.533 612.27 558.6 614.937 558.6H662.937C666.537 558.6 668.337 560.2 668.337 563.4C668.337 564.867 667.87 566.467 666.937 568.2L661.337 577.8C660.403 579.533 659.937 581.133 659.937 582.6C659.937 585.8 661.803 587.4 665.537 587.4C668.07 587.4 670.803 586.467 673.737 584.6C676.803 582.733 679.07 580.467 680.537 577.8L691.737 558.6C692.67 556.867 693.137 555.267 693.137 553.8C693.137 550.6 691.27 549 687.537 549H620.337C616.737 549 614.937 547.4 614.937 544.2C614.937 542.733 615.403 541.133 616.337 539.4L638.537 501C640.003 498.333 642.203 496.067 645.137 494.2C648.203 492.333 651.07 491.4 653.737 491.4H701.737C704.403 491.4 707.203 490.467 710.137 488.6C713.07 486.733 715.27 484.467 716.737 481.8L738.937 443.4C740.937 439.933 743.07 438.2 745.337 438.2C746.537 438.2 747.47 438.8 748.137 440L774.737 485.2C777.27 489.333 781.737 491.4 788.137 491.4C791.737 491.4 793.537 493 793.537 496.2C793.537 497.667 793.07 499.267 792.137 501L781.137 520.2C779.537 522.867 777.27 525.133 774.337 527C771.403 528.867 768.603 529.8 765.937 529.8ZM828.576 491.4H962.976C966.709 491.4 968.576 493 968.576 496.2C968.576 497.667 968.109 499.267 967.176 501L917.176 587.4C915.709 590.067 913.442 592.333 910.376 594.2C907.442 596.067 904.642 597 901.976 597H834.776C832.242 597 829.442 597.933 826.376 599.8C823.442 601.667 821.242 603.933 819.776 606.6L787.976 661.8C785.976 665.267 783.842 667 781.576 667C780.376 667 779.376 666.333 778.576 665L752.176 620C751.242 618.533 750.776 616.667 750.776 614.4C750.776 611.067 751.576 608.067 753.176 605.4L813.576 501C815.042 498.333 817.242 496.067 820.176 494.2C823.109 492.333 825.909 491.4 828.576 491.4ZM855.576 577.8L894.376 510.6C895.309 508.867 895.776 507.267 895.776 505.8C895.776 502.6 893.976 501 890.376 501C887.709 501 884.842 501.933 881.776 503.8C878.842 505.667 876.642 507.933 875.176 510.6L836.376 577.8C835.309 579.533 834.776 581.133 834.776 582.6C834.776 585.8 836.642 587.4 840.376 587.4C843.042 587.4 845.842 586.467 848.776 584.6C851.709 582.733 853.976 580.467 855.576 577.8ZM988.87 491.4H1123.27C1126.87 491.4 1128.67 493 1128.67 496.2C1128.67 497.667 1128.2 499.267 1127.27 501L1077.27 587.4C1075.8 590.067 1073.54 592.333 1070.47 594.2C1067.54 596.067 1064.8 597 1062.27 597H927.87C924.136 597 922.27 595.4 922.27 592.2C922.27 590.733 922.736 589.133 923.67 587.4L945.87 549C947.47 546.333 949.736 544.067 952.67 542.2C955.603 540.333 958.403 539.4 961.07 539.4H1028.27C1030.94 539.4 1033.74 538.467 1036.67 536.6C1039.6 534.733 1041.87 532.467 1043.47 529.8L1054.47 510.6C1055.4 508.867 1055.87 507.267 1055.87 505.8C1055.87 502.6 1054.07 501 1050.47 501C1047.8 501 1045 501.933 1042.07 503.8C1039.14 505.667 1036.87 507.933 1035.27 510.6L1029.67 520.2C1028.2 522.867 1025.94 525.133 1022.87 527C1019.94 528.867 1017.2 529.8 1014.67 529.8H966.67C962.936 529.8 961.07 528.2 961.07 525C961.07 523.533 961.536 521.933 962.47 520.2L973.67 501C975.136 498.333 977.336 496.067 980.27 494.2C983.336 492.333 986.203 491.4 988.87 491.4ZM1015.67 577.8L1026.87 558.6C1027.8 556.867 1028.27 555.267 1028.27 553.8C1028.27 550.6 1026.4 549 1022.67 549C1020 549 1017.2 549.933 1014.27 551.8C1011.34 553.667 1009.14 555.933 1007.67 558.6L996.47 577.8C995.536 579.533 995.07 581.133 995.07 582.6C995.07 585.8 996.87 587.4 1000.47 587.4C1003.14 587.4 1005.94 586.467 1008.87 584.6C1011.94 582.733 1014.2 580.467 1015.67 577.8ZM1249.36 605.4L1303.96 510.6C1304.89 508.867 1305.36 507.267 1305.36 505.8C1305.36 502.6 1303.56 501 1299.96 501C1297.29 501 1294.49 501.933 1291.56 503.8C1288.62 505.667 1286.36 507.933 1284.76 510.6L1240.36 587.4C1238.89 590.067 1236.62 592.333 1233.56 594.2C1230.62 596.067 1227.89 597 1225.36 597H1177.36C1173.62 597 1171.76 595.4 1171.76 592.2C1171.76 590.733 1172.22 589.133 1173.16 587.4L1217.56 510.6C1218.49 508.867 1218.96 507.267 1218.96 505.8C1218.96 502.6 1217.16 501 1213.56 501C1210.89 501 1208.09 501.933 1205.16 503.8C1202.22 505.667 1199.96 507.933 1198.36 510.6L1153.96 587.4C1152.49 590.067 1150.22 592.333 1147.16 594.2C1144.22 596.067 1141.49 597 1138.96 597H1090.96C1087.22 597 1085.36 595.4 1085.36 592.2C1085.36 590.733 1085.82 589.133 1086.76 587.4L1136.76 501C1138.22 498.333 1140.42 496.067 1143.36 494.2C1146.42 492.333 1149.29 491.4 1151.96 491.4H1372.76C1376.36 491.4 1378.16 493 1378.16 496.2C1378.16 497.667 1377.69 499.267 1376.76 501L1283.96 661.8C1281.96 665.267 1279.82 667 1277.56 667C1276.36 667 1275.42 666.333 1274.76 665L1248.16 620C1247.36 618.533 1246.96 616.667 1246.96 614.4C1246.96 611.067 1247.76 608.067 1249.36 605.4Z" fill="#FFF8F8"/>
<path d="M713.937 520.2L716.492 521.772L716.523 521.722L716.551 521.671L713.937 520.2ZM719.337 510.6L716.782 509.028L716.751 509.078L716.722 509.129L719.337 510.6ZM700.137 510.6L697.564 509.057L697.549 509.082L697.534 509.109L700.137 510.6ZM689.137 529.8L686.534 528.309L686.514 528.343L686.495 528.378L689.137 529.8ZM764.337 549L761.782 547.428L761.757 547.468L761.734 547.509L764.337 549ZM742.337 587.4L744.909 588.943L744.925 588.918L744.94 588.891L742.337 587.4ZM670.737 599.8L669.126 597.269L669.126 597.269L670.737 599.8ZM663.937 606.6L661.364 605.057L661.352 605.077L661.34 605.098L663.937 606.6ZM641.737 645L639.14 643.498L639.138 643.501L641.737 645ZM632.537 648.4L629.951 649.922L629.994 649.994L630.041 650.064L632.537 648.4ZM605.937 603.2L603.342 604.706L603.347 604.714L603.351 604.722L605.937 603.2ZM588.737 587.4L591.292 588.972L591.316 588.932L591.34 588.891L588.737 587.4ZM599.737 568.2L602.34 569.691L602.353 569.669L602.365 569.646L599.737 568.2ZM606.337 561.4L604.777 558.837L604.751 558.853L604.726 558.869L606.337 561.4ZM666.937 568.2L669.528 569.712L669.554 569.667L669.578 569.622L666.937 568.2ZM661.337 577.8L658.745 576.288L658.72 576.333L658.695 576.378L661.337 577.8ZM673.737 584.6L672.177 582.037L672.151 582.053L672.126 582.069L673.737 584.6ZM680.537 577.8L677.945 576.288L677.926 576.321L677.908 576.354L680.537 577.8ZM691.737 558.6L694.328 560.112L694.354 560.067L694.378 560.022L691.737 558.6ZM616.337 539.4L613.74 537.898L613.717 537.938L613.695 537.978L616.337 539.4ZM638.537 501L641.134 502.502L641.15 502.474L641.165 502.446L638.537 501ZM645.137 494.2L643.577 491.637L643.551 491.653L643.526 491.669L645.137 494.2ZM710.137 488.6L708.526 486.069L708.526 486.069L710.137 488.6ZM716.737 481.8L714.14 480.298L714.123 480.326L714.108 480.354L716.737 481.8ZM738.937 443.4L741.534 444.902L741.535 444.899L738.937 443.4ZM748.137 440L745.514 441.457L745.532 441.489L745.551 441.522L748.137 440ZM774.737 485.2L772.151 486.722L772.165 486.745L772.179 486.768L774.737 485.2ZM792.137 501L794.74 502.491L794.759 502.457L794.778 502.422L792.137 501ZM781.137 520.2L783.709 521.743L783.725 521.718L783.74 521.691L781.137 520.2ZM765.937 529.8V526.8H717.937V529.8V532.8H765.937V529.8ZM717.937 529.8V526.8C716.429 526.8 715.858 526.467 715.689 526.322C715.609 526.253 715.337 526.006 715.337 525H712.337H709.337C709.337 527.194 709.998 529.347 711.784 530.878C713.482 532.333 715.711 532.8 717.937 532.8V529.8ZM712.337 525H715.337C715.337 524.264 715.608 523.209 716.492 521.772L713.937 520.2L711.382 518.628C710.132 520.658 709.337 522.803 709.337 525H712.337ZM713.937 520.2L716.551 521.671L721.951 512.071L719.337 510.6L716.722 509.129L711.322 518.729L713.937 520.2ZM719.337 510.6L721.892 512.172C723.141 510.142 723.937 507.997 723.937 505.8H720.937H717.937C717.937 506.536 717.666 507.591 716.782 509.028L719.337 510.6ZM720.937 505.8H723.937C723.937 503.606 723.275 501.453 721.489 499.922C719.791 498.467 717.562 498 715.337 498V501V504C716.844 504 717.415 504.333 717.584 504.478C717.665 504.547 717.937 504.794 717.937 505.8H720.937ZM715.337 501V498C711.95 498 708.597 499.188 705.326 501.269L706.937 503.8L708.547 506.331C711.143 504.679 713.39 504 715.337 504V501ZM706.937 503.8L705.326 501.269C702.047 503.356 699.431 505.945 697.564 509.057L700.137 510.6L702.709 512.143C704.043 509.921 705.96 507.977 708.547 506.331L706.937 503.8ZM700.137 510.6L697.534 509.109L686.534 528.309L689.137 529.8L691.74 531.291L702.74 512.091L700.137 510.6ZM689.137 529.8L686.495 528.378C685.404 530.405 684.737 532.496 684.737 534.6H687.737H690.737C690.737 533.771 691.003 532.662 691.778 531.222L689.137 529.8ZM687.737 534.6H684.737C684.737 536.76 685.36 538.902 687.094 540.442C688.759 541.923 690.956 542.4 693.137 542.4V539.4V536.4C691.718 536.4 691.214 536.077 691.08 535.958C691.013 535.898 690.737 535.64 690.737 534.6H687.737ZM693.137 539.4V542.4H760.337V539.4V536.4H693.137V539.4ZM760.337 539.4V542.4C761.844 542.4 762.415 542.733 762.584 542.878C762.665 542.947 762.937 543.194 762.937 544.2H765.937H768.937C768.937 542.006 768.275 539.853 766.489 538.322C764.791 536.867 762.562 536.4 760.337 536.4V539.4ZM765.937 544.2H762.937C762.937 544.936 762.666 545.991 761.782 547.428L764.337 549L766.892 550.572C768.141 548.542 768.937 546.397 768.937 544.2H765.937ZM764.337 549L761.734 547.509L739.734 585.909L742.337 587.4L744.94 588.891L766.94 550.491L764.337 549ZM742.337 587.4L739.764 585.857C738.431 588.079 736.513 590.023 733.926 591.669L735.537 594.2L737.147 596.731C740.427 594.644 743.043 592.055 744.909 588.943L742.337 587.4ZM735.537 594.2L733.926 591.669C731.33 593.321 729.083 594 727.137 594V597V600C730.523 600 733.876 598.812 737.147 596.731L735.537 594.2ZM727.137 597V594H679.137V597V600H727.137V597ZM679.137 597V594C675.75 594 672.397 595.188 669.126 597.269L670.737 599.8L672.347 602.331C674.943 600.679 677.19 600 679.137 600V597ZM670.737 599.8L669.126 597.269C665.847 599.356 663.231 601.945 661.364 605.057L663.937 606.6L666.509 608.143C667.843 605.921 669.76 603.977 672.347 602.331L670.737 599.8ZM663.937 606.6L661.34 605.098L639.14 643.498L641.737 645L644.334 646.502L666.534 608.102L663.937 606.6ZM641.737 645L639.138 643.501C637.214 646.837 635.919 647.2 635.537 647.2V650.2V653.2C639.422 653.2 642.26 650.096 644.335 646.499L641.737 645ZM635.537 650.2V647.2C635.489 647.2 635.468 647.194 635.464 647.193C635.46 647.192 635.45 647.189 635.43 647.178C635.39 647.154 635.243 647.052 635.033 646.736L632.537 648.4L630.041 650.064C631.268 651.905 633.122 653.2 635.537 653.2V650.2ZM632.537 648.4L635.122 646.878L608.522 601.678L605.937 603.2L603.351 604.722L629.951 649.922L632.537 648.4ZM605.937 603.2L608.531 601.694C605.415 596.328 599.794 594 592.737 594V597V600C598.479 600 601.658 601.806 603.342 604.706L605.937 603.2ZM592.737 597V594C591.229 594 590.658 593.667 590.489 593.522C590.409 593.453 590.137 593.206 590.137 592.2H587.137H584.137C584.137 594.394 584.798 596.547 586.584 598.078C588.282 599.533 590.511 600 592.737 600V597ZM587.137 592.2H590.137C590.137 591.464 590.408 590.409 591.292 588.972L588.737 587.4L586.182 585.828C584.932 587.858 584.137 590.003 584.137 592.2H587.137ZM588.737 587.4L591.34 588.891L602.34 569.691L599.737 568.2L597.134 566.709L586.134 585.909L588.737 587.4ZM599.737 568.2L602.365 569.646C603.556 567.48 605.378 565.566 607.947 563.931L606.337 561.4L604.726 558.869C601.429 560.967 598.85 563.587 597.108 566.754L599.737 568.2ZM606.337 561.4L607.897 563.963C610.651 562.286 612.979 561.6 614.937 561.6V558.6V555.6C611.561 555.6 608.156 556.781 604.777 558.837L606.337 561.4ZM614.937 558.6V561.6H662.937V558.6V555.6H614.937V558.6ZM662.937 558.6V561.6C664.356 561.6 664.859 561.923 664.994 562.042C665.06 562.102 665.337 562.36 665.337 563.4H668.337H671.337C671.337 561.24 670.713 559.098 668.98 557.558C667.314 556.077 665.118 555.6 662.937 555.6V558.6ZM668.337 563.4H665.337C665.337 564.229 665.071 565.338 664.295 566.778L666.937 568.2L669.578 569.622C670.67 567.595 671.337 565.504 671.337 563.4H668.337ZM666.937 568.2L664.345 566.688L658.745 576.288L661.337 577.8L663.928 579.312L669.528 569.712L666.937 568.2ZM661.337 577.8L658.695 576.378C657.604 578.405 656.937 580.496 656.937 582.6H659.937H662.937C662.937 581.771 663.203 580.662 663.978 579.222L661.337 577.8ZM659.937 582.6H656.937C656.937 584.794 657.598 586.947 659.384 588.478C661.082 589.933 663.311 590.4 665.537 590.4V587.4V584.4C664.029 584.4 663.458 584.067 663.289 583.922C663.209 583.853 662.937 583.606 662.937 582.6H659.937ZM665.537 587.4V590.4C668.816 590.4 672.106 589.194 675.347 587.131L673.737 584.6L672.126 582.069C669.501 583.74 667.324 584.4 665.537 584.4V587.4ZM673.737 584.6L675.297 587.163C678.73 585.073 681.404 582.448 683.165 579.246L680.537 577.8L677.908 576.354C676.736 578.485 674.877 580.394 672.177 582.037L673.737 584.6ZM680.537 577.8L683.128 579.312L694.328 560.112L691.737 558.6L689.145 557.088L677.945 576.288L680.537 577.8ZM691.737 558.6L694.378 560.022C695.47 557.995 696.137 555.904 696.137 553.8H693.137H690.137C690.137 554.629 689.871 555.738 689.095 557.178L691.737 558.6ZM693.137 553.8H696.137C696.137 551.606 695.475 549.453 693.689 547.922C691.991 546.467 689.762 546 687.537 546V549V552C689.044 552 689.615 552.333 689.784 552.478C689.865 552.547 690.137 552.794 690.137 553.8H693.137ZM687.537 549V546H620.337V549V552H687.537V549ZM620.337 549V546C618.918 546 618.414 545.677 618.28 545.558C618.213 545.498 617.937 545.24 617.937 544.2H614.937H611.937C611.937 546.36 612.56 548.502 614.294 550.042C615.959 551.523 618.156 552 620.337 552V549ZM614.937 544.2H617.937C617.937 543.371 618.203 542.262 618.978 540.822L616.337 539.4L613.695 537.978C612.604 540.005 611.937 542.096 611.937 544.2H614.937ZM616.337 539.4L618.934 540.902L641.134 502.502L638.537 501L635.94 499.498L613.74 537.898L616.337 539.4ZM638.537 501L641.165 502.446C642.356 500.28 644.178 498.366 646.747 496.731L645.137 494.2L643.526 491.669C640.229 493.767 637.65 496.387 635.908 499.554L638.537 501ZM645.137 494.2L646.697 496.763C649.451 495.086 651.779 494.4 653.737 494.4V491.4V488.4C650.361 488.4 646.956 489.581 643.577 491.637L645.137 494.2ZM653.737 491.4V494.4H701.737V491.4V488.4H653.737V491.4ZM701.737 491.4V494.4C705.123 494.4 708.476 493.212 711.747 491.131L710.137 488.6L708.526 486.069C705.93 487.721 703.683 488.4 701.737 488.4V491.4ZM710.137 488.6L711.747 491.131C715.045 489.033 717.623 486.413 719.365 483.246L716.737 481.8L714.108 480.354C712.917 482.52 711.096 484.434 708.526 486.069L710.137 488.6ZM716.737 481.8L719.334 483.302L741.534 444.902L738.937 443.4L736.34 441.898L714.14 480.298L716.737 481.8ZM738.937 443.4L741.535 444.899C743.414 441.643 744.771 441.2 745.337 441.2V438.2V435.2C741.369 435.2 738.459 438.224 736.338 441.901L738.937 443.4ZM745.337 438.2V441.2C745.385 441.2 745.393 441.206 745.374 441.2C745.354 441.195 745.331 441.184 745.314 441.174C745.277 441.15 745.365 441.188 745.514 441.457L748.137 440L750.759 438.543C749.655 436.556 747.803 435.2 745.337 435.2V438.2ZM748.137 440L745.551 441.522L772.151 486.722L774.737 485.2L777.322 483.678L750.722 438.478L748.137 440ZM774.737 485.2L772.179 486.768C775.43 492.071 781.071 494.4 788.137 494.4V491.4V488.4C782.403 488.4 779.111 486.595 777.295 483.632L774.737 485.2ZM788.137 491.4V494.4C789.556 494.4 790.059 494.723 790.194 494.842C790.26 494.902 790.537 495.16 790.537 496.2H793.537H796.537C796.537 494.04 795.913 491.898 794.18 490.358C792.514 488.877 790.318 488.4 788.137 488.4V491.4ZM793.537 496.2H790.537C790.537 497.029 790.271 498.138 789.495 499.578L792.137 501L794.778 502.422C795.87 500.395 796.537 498.304 796.537 496.2H793.537ZM792.137 501L789.534 499.509L778.534 518.709L781.137 520.2L783.74 521.691L794.74 502.491L792.137 501ZM781.137 520.2L778.564 518.657C777.231 520.879 775.313 522.823 772.726 524.469L774.337 527L775.947 529.531C779.227 527.444 781.843 524.855 783.709 521.743L781.137 520.2ZM774.337 527L772.726 524.469C770.13 526.121 767.883 526.8 765.937 526.8V529.8V532.8C769.323 532.8 772.676 531.612 775.947 529.531L774.337 527ZM967.176 501L969.772 502.503L969.795 502.463L969.817 502.422L967.176 501ZM917.176 587.4L914.579 585.897L914.563 585.926L914.547 585.954L917.176 587.4ZM910.376 594.2L908.816 591.637L908.79 591.653L908.765 591.669L910.376 594.2ZM826.376 599.8L824.816 597.237L824.79 597.253L824.765 597.269L826.376 599.8ZM819.776 606.6L822.375 608.098L822.39 608.072L822.404 608.046L819.776 606.6ZM787.976 661.8L790.574 663.299L790.575 663.298L787.976 661.8ZM778.576 665L775.988 666.518L775.996 666.531L776.003 666.543L778.576 665ZM752.176 620L754.763 618.482L754.736 618.435L754.707 618.389L752.176 620ZM753.176 605.4L755.748 606.943L755.761 606.923L755.773 606.902L753.176 605.4ZM813.576 501L816.173 502.502L816.189 502.474L816.204 502.446L813.576 501ZM820.176 494.2L818.565 491.669L818.565 491.669L820.176 494.2ZM855.576 577.8L858.148 579.343L858.161 579.322L858.174 579.3L855.576 577.8ZM894.376 510.6L896.974 512.1L896.996 512.062L897.017 512.022L894.376 510.6ZM881.776 503.8L880.216 501.237L880.19 501.253L880.165 501.269L881.776 503.8ZM875.176 510.6L877.774 512.1L877.789 512.073L877.804 512.046L875.176 510.6ZM836.376 577.8L838.931 579.372L838.953 579.336L838.974 579.3L836.376 577.8ZM828.576 491.4V494.4H962.976V491.4V488.4H828.576V491.4ZM962.976 491.4V494.4C964.483 494.4 965.054 494.733 965.223 494.878C965.304 494.947 965.576 495.194 965.576 496.2H968.576H971.576C971.576 494.006 970.914 491.853 969.128 490.322C967.43 488.867 965.201 488.4 962.976 488.4V491.4ZM968.576 496.2H965.576C965.576 497.029 965.31 498.138 964.534 499.578L967.176 501L969.817 502.422C970.909 500.395 971.576 498.304 971.576 496.2H968.576ZM967.176 501L964.579 499.497L914.579 585.897L917.176 587.4L919.772 588.903L969.772 502.503L967.176 501ZM917.176 587.4L914.547 585.954C913.375 588.085 911.516 589.994 908.816 591.637L910.376 594.2L911.936 596.763C915.369 594.673 918.043 592.048 919.804 588.846L917.176 587.4ZM910.376 594.2L908.765 591.669C906.169 593.321 903.923 594 901.976 594V597V600C905.362 600 908.716 598.812 911.986 596.731L910.376 594.2ZM901.976 597V594H834.776V597V600H901.976V597ZM834.776 597V594C831.509 594 828.166 595.198 824.816 597.237L826.376 599.8L827.936 602.363C830.719 600.669 832.976 600 834.776 600V597ZM826.376 599.8L824.765 597.269C821.468 599.367 818.889 601.987 817.147 605.154L819.776 606.6L822.404 608.046C823.596 605.88 825.417 603.966 827.986 602.331L826.376 599.8ZM819.776 606.6L817.176 605.102L785.376 660.302L787.976 661.8L790.575 663.298L822.375 608.098L819.776 606.6ZM787.976 661.8L785.377 660.301C783.498 663.557 782.141 664 781.576 664V667V670C785.544 670 788.453 666.976 790.574 663.299L787.976 661.8ZM781.576 667V664C781.558 664 781.564 663.998 781.583 664.004C781.603 664.01 781.606 664.015 781.59 664.004C781.551 663.978 781.384 663.85 781.148 663.457L778.576 665L776.003 666.543C777.162 668.475 779.009 670 781.576 670V667ZM778.576 665L781.163 663.482L754.763 618.482L752.176 620L749.588 621.518L775.988 666.518L778.576 665ZM752.176 620L754.707 618.389C754.16 617.53 753.776 616.267 753.776 614.4H750.776H747.776C747.776 617.067 748.325 619.537 749.645 621.611L752.176 620ZM750.776 614.4H753.776C753.776 611.57 754.448 609.11 755.748 606.943L753.176 605.4L750.603 603.857C748.703 607.023 747.776 610.564 747.776 614.4H750.776ZM753.176 605.4L755.773 606.902L816.173 502.502L813.576 501L810.979 499.498L750.579 603.898L753.176 605.4ZM813.576 501L816.204 502.446C817.396 500.28 819.217 498.366 821.786 496.731L820.176 494.2L818.565 491.669C815.268 493.767 812.689 496.387 810.947 499.554L813.576 501ZM820.176 494.2L821.786 496.731C824.382 495.079 826.629 494.4 828.576 494.4V491.4V488.4C825.189 488.4 821.836 489.588 818.565 491.669L820.176 494.2ZM855.576 577.8L858.174 579.3L896.974 512.1L894.376 510.6L891.778 509.1L852.978 576.3L855.576 577.8ZM894.376 510.6L897.017 512.022C898.109 509.995 898.776 507.904 898.776 505.8H895.776H892.776C892.776 506.629 892.51 507.738 891.734 509.178L894.376 510.6ZM895.776 505.8H898.776C898.776 503.64 898.152 501.498 896.419 499.958C894.753 498.477 892.557 498 890.376 498V501V504C891.795 504 892.299 504.323 892.433 504.442C892.5 504.502 892.776 504.76 892.776 505.8H895.776ZM890.376 501V498C887 498 883.595 499.181 880.216 501.237L881.776 503.8L883.336 506.363C886.09 504.686 888.418 504 890.376 504V501ZM881.776 503.8L880.165 501.269C876.868 503.367 874.289 505.987 872.547 509.154L875.176 510.6L877.804 512.046C878.996 509.88 880.817 507.966 883.386 506.331L881.776 503.8ZM875.176 510.6L872.578 509.1L833.778 576.3L836.376 577.8L838.974 579.3L877.774 512.1L875.176 510.6ZM836.376 577.8L833.821 576.228C832.571 578.258 831.776 580.403 831.776 582.6H834.776H837.776C837.776 581.864 838.047 580.809 838.931 579.372L836.376 577.8ZM834.776 582.6H831.776C831.776 584.794 832.437 586.947 834.223 588.478C835.921 589.933 838.15 590.4 840.376 590.4V587.4V584.4C838.868 584.4 838.297 584.067 838.128 583.922C838.048 583.853 837.776 583.606 837.776 582.6H834.776ZM840.376 587.4V590.4C843.762 590.4 847.116 589.212 850.386 587.131L848.776 584.6L847.165 582.069C844.569 583.721 842.323 584.4 840.376 584.4V587.4ZM848.776 584.6L850.386 587.131C853.666 585.044 856.282 582.455 858.148 579.343L855.576 577.8L853.003 576.257C851.67 578.479 849.752 580.423 847.165 582.069L848.776 584.6ZM1127.27 501L1129.87 502.503L1129.89 502.463L1129.91 502.422L1127.27 501ZM1077.27 587.4L1074.67 585.897L1074.66 585.926L1074.64 585.954L1077.27 587.4ZM1070.47 594.2L1068.91 591.637L1068.88 591.653L1068.86 591.669L1070.47 594.2ZM923.67 587.4L921.072 585.898L921.05 585.938L921.028 585.978L923.67 587.4ZM945.87 549L943.297 547.457L943.285 547.477L943.272 547.498L945.87 549ZM952.67 542.2L951.059 539.669L951.059 539.669L952.67 542.2ZM1043.47 529.8L1046.04 531.343L1046.06 531.318L1046.07 531.291L1043.47 529.8ZM1054.47 510.6L1057.07 512.091L1057.09 512.057L1057.11 512.022L1054.47 510.6ZM1035.27 510.6L1032.7 509.057L1032.69 509.072L1032.68 509.088L1035.27 510.6ZM1029.67 520.2L1027.08 518.688L1027.06 518.721L1027.04 518.754L1029.67 520.2ZM1022.87 527L1021.31 524.437L1021.28 524.453L1021.26 524.469L1022.87 527ZM962.47 520.2L959.878 518.688L959.852 518.733L959.828 518.778L962.47 520.2ZM973.67 501L976.261 502.512L976.28 502.479L976.298 502.446L973.67 501ZM980.27 494.2L978.71 491.637L978.684 491.653L978.659 491.669L980.27 494.2ZM1015.67 577.8L1013.08 576.288L1013.06 576.321L1013.04 576.354L1015.67 577.8ZM1026.87 558.6L1029.46 560.112L1029.49 560.067L1029.51 560.022L1026.87 558.6ZM1014.27 551.8L1012.66 549.269L1012.66 549.269L1014.27 551.8ZM1007.67 558.6L1010.26 560.112L1010.28 560.079L1010.3 560.046L1007.67 558.6ZM996.47 577.8L993.878 576.288L993.852 576.333L993.828 576.378L996.47 577.8ZM1008.87 584.6L1007.31 582.037L1007.28 582.053L1007.26 582.069L1008.87 584.6ZM988.87 491.4V494.4H1123.27V491.4V488.4H988.87V491.4ZM1123.27 491.4V494.4C1124.69 494.4 1125.19 494.723 1125.33 494.842C1125.39 494.902 1125.67 495.16 1125.67 496.2H1128.67H1131.67C1131.67 494.04 1131.05 491.898 1129.31 490.358C1127.65 488.877 1125.45 488.4 1123.27 488.4V491.4ZM1128.67 496.2H1125.67C1125.67 497.029 1125.4 498.138 1124.63 499.578L1127.27 501L1129.91 502.422C1131 500.395 1131.67 498.304 1131.67 496.2H1128.67ZM1127.27 501L1124.67 499.497L1074.67 585.897L1077.27 587.4L1079.87 588.903L1129.87 502.503L1127.27 501ZM1077.27 587.4L1074.64 585.954C1073.47 588.085 1071.61 589.994 1068.91 591.637L1070.47 594.2L1072.03 596.763C1075.46 594.673 1078.14 592.048 1079.9 588.846L1077.27 587.4ZM1070.47 594.2L1068.86 591.669C1066.23 593.34 1064.06 594 1062.27 594V597V600C1065.55 600 1068.84 598.794 1072.08 596.731L1070.47 594.2ZM1062.27 597V594H927.87V597V600H1062.27V597ZM927.87 597V594C926.362 594 925.791 593.667 925.622 593.522C925.541 593.453 925.27 593.206 925.27 592.2H922.27H919.27C919.27 594.394 919.931 596.547 921.717 598.078C923.415 599.533 925.644 600 927.87 600V597ZM922.27 592.2H925.27C925.27 591.371 925.536 590.262 926.311 588.822L923.67 587.4L921.028 585.978C919.937 588.005 919.27 590.096 919.27 592.2H922.27ZM923.67 587.4L926.267 588.902L948.467 550.502L945.87 549L943.272 547.498L921.072 585.898L923.67 587.4ZM945.87 549L948.442 550.543C949.775 548.321 951.693 546.377 954.28 544.731L952.67 542.2L951.059 539.669C947.78 541.756 945.164 544.345 943.297 547.457L945.87 549ZM952.67 542.2L954.28 544.731C956.876 543.079 959.123 542.4 961.07 542.4V539.4V536.4C957.683 536.4 954.33 537.588 951.059 539.669L952.67 542.2ZM961.07 539.4V542.4H1028.27V539.4V536.4H961.07V539.4ZM1028.27 539.4V542.4C1031.66 542.4 1035.01 541.212 1038.28 539.131L1036.67 536.6L1035.06 534.069C1032.46 535.721 1030.22 536.4 1028.27 536.4V539.4ZM1036.67 536.6L1038.28 539.131C1041.56 537.044 1044.18 534.455 1046.04 531.343L1043.47 529.8L1040.9 528.257C1039.56 530.479 1037.65 532.423 1035.06 534.069L1036.67 536.6ZM1043.47 529.8L1046.07 531.291L1057.07 512.091L1054.47 510.6L1051.87 509.109L1040.87 528.309L1043.47 529.8ZM1054.47 510.6L1057.11 512.022C1058.2 509.995 1058.87 507.904 1058.87 505.8H1055.87H1052.87C1052.87 506.629 1052.6 507.738 1051.83 509.178L1054.47 510.6ZM1055.87 505.8H1058.87C1058.87 503.64 1058.25 501.498 1056.51 499.958C1054.85 498.477 1052.65 498 1050.47 498V501V504C1051.89 504 1052.39 504.323 1052.53 504.442C1052.59 504.502 1052.87 504.76 1052.87 505.8H1055.87ZM1050.47 501V498C1047.08 498 1043.73 499.188 1040.46 501.269L1042.07 503.8L1043.68 506.331C1046.28 504.679 1048.52 504 1050.47 504V501ZM1042.07 503.8L1040.46 501.269C1037.18 503.356 1034.56 505.945 1032.7 509.057L1035.27 510.6L1037.84 512.143C1039.18 509.921 1041.09 507.977 1043.68 506.331L1042.07 503.8ZM1035.27 510.6L1032.68 509.088L1027.08 518.688L1029.67 520.2L1032.26 521.712L1037.86 512.112L1035.27 510.6ZM1029.67 520.2L1027.04 518.754C1025.87 520.885 1024.01 522.794 1021.31 524.437L1022.87 527L1024.43 529.563C1027.86 527.473 1030.54 524.848 1032.3 521.646L1029.67 520.2ZM1022.87 527L1021.26 524.469C1018.63 526.14 1016.46 526.8 1014.67 526.8V529.8V532.8C1017.95 532.8 1021.24 531.594 1024.48 529.531L1022.87 527ZM1014.67 529.8V526.8H966.67V529.8V532.8H1014.67V529.8ZM966.67 529.8V526.8C965.162 526.8 964.591 526.467 964.422 526.322C964.341 526.253 964.07 526.006 964.07 525H961.07H958.07C958.07 527.194 958.731 529.347 960.517 530.878C962.215 532.333 964.444 532.8 966.67 532.8V529.8ZM961.07 525H964.07C964.07 524.171 964.336 523.062 965.111 521.622L962.47 520.2L959.828 518.778C958.737 520.805 958.07 522.896 958.07 525H961.07ZM962.47 520.2L965.061 521.712L976.261 502.512L973.67 501L971.078 499.488L959.878 518.688L962.47 520.2ZM973.67 501L976.298 502.446C977.489 500.28 979.311 498.366 981.88 496.731L980.27 494.2L978.659 491.669C975.362 493.767 972.783 496.387 971.041 499.554L973.67 501ZM980.27 494.2L981.829 496.763C984.584 495.086 986.912 494.4 988.87 494.4V491.4V488.4C985.494 488.4 982.089 489.581 978.71 491.637L980.27 494.2ZM1015.67 577.8L1018.26 579.312L1029.46 560.112L1026.87 558.6L1024.28 557.088L1013.08 576.288L1015.67 577.8ZM1026.87 558.6L1029.51 560.022C1030.6 557.995 1031.27 555.904 1031.27 553.8H1028.27H1025.27C1025.27 554.629 1025 555.738 1024.23 557.178L1026.87 558.6ZM1028.27 553.8H1031.27C1031.27 551.606 1030.61 549.453 1028.82 547.922C1027.12 546.467 1024.9 546 1022.67 546V549V552C1024.18 552 1024.75 552.333 1024.92 552.478C1025 552.547 1025.27 552.794 1025.27 553.8H1028.27ZM1022.67 549V546C1019.28 546 1015.93 547.188 1012.66 549.269L1014.27 551.8L1015.88 554.331C1018.48 552.679 1020.72 552 1022.67 552V549ZM1014.27 551.8L1012.66 549.269C1009.36 551.367 1006.78 553.987 1005.04 557.154L1007.67 558.6L1010.3 560.046C1011.49 557.88 1013.31 555.966 1015.88 554.331L1014.27 551.8ZM1007.67 558.6L1005.08 557.088L993.878 576.288L996.47 577.8L999.061 579.312L1010.26 560.112L1007.67 558.6ZM996.47 577.8L993.828 576.378C992.737 578.405 992.07 580.496 992.07 582.6H995.07H998.07C998.07 581.771 998.336 580.662 999.111 579.222L996.47 577.8ZM995.07 582.6H992.07C992.07 584.76 992.693 586.902 994.426 588.442C996.092 589.923 998.288 590.4 1000.47 590.4V587.4V584.4C999.051 584.4 998.547 584.077 998.413 583.958C998.346 583.898 998.07 583.64 998.07 582.6H995.07ZM1000.47 587.4V590.4C1003.86 590.4 1007.21 589.212 1010.48 587.131L1008.87 584.6L1007.26 582.069C1004.66 583.721 1002.42 584.4 1000.47 584.4V587.4ZM1008.87 584.6L1010.43 587.163C1013.86 585.073 1016.54 582.448 1018.3 579.246L1015.67 577.8L1013.04 576.354C1011.87 578.485 1010.01 580.394 1007.31 582.037L1008.87 584.6ZM1249.36 605.4L1251.93 606.943L1251.94 606.921L1251.96 606.897L1249.36 605.4ZM1303.96 510.6L1306.56 512.097L1306.58 512.06L1306.6 512.022L1303.96 510.6ZM1291.56 503.8L1289.94 501.269L1289.94 501.269L1291.56 503.8ZM1284.76 510.6L1282.18 509.057L1282.17 509.077L1282.16 509.098L1284.76 510.6ZM1240.36 587.4L1237.76 585.898L1237.74 585.926L1237.73 585.954L1240.36 587.4ZM1233.56 594.2L1232 591.637L1231.97 591.653L1231.94 591.669L1233.56 594.2ZM1173.16 587.4L1170.56 585.898L1170.54 585.938L1170.51 585.978L1173.16 587.4ZM1217.56 510.6L1220.15 512.102L1220.18 512.062L1220.2 512.022L1217.56 510.6ZM1198.36 510.6L1195.78 509.057L1195.77 509.077L1195.76 509.098L1198.36 510.6ZM1153.96 587.4L1151.36 585.898L1151.34 585.926L1151.33 585.954L1153.96 587.4ZM1147.16 594.2L1145.6 591.637L1145.57 591.653L1145.54 591.669L1147.16 594.2ZM1086.76 587.4L1084.16 585.897L1084.14 585.937L1084.11 585.978L1086.76 587.4ZM1136.76 501L1139.35 502.503L1139.37 502.474L1139.38 502.446L1136.76 501ZM1143.36 494.2L1141.8 491.637L1141.77 491.653L1141.74 491.669L1143.36 494.2ZM1376.76 501L1379.35 502.5L1379.38 502.461L1379.4 502.422L1376.76 501ZM1283.96 661.8L1281.36 660.3L1281.36 660.301L1283.96 661.8ZM1274.76 665L1277.44 663.658L1277.39 663.564L1277.34 663.473L1274.76 665ZM1248.16 620L1245.52 621.437L1245.55 621.482L1245.57 621.527L1248.16 620ZM1249.36 605.4L1251.96 606.897L1306.56 512.097L1303.96 510.6L1301.36 509.103L1246.76 603.903L1249.36 605.4ZM1303.96 510.6L1306.6 512.022C1307.69 509.995 1308.36 507.904 1308.36 505.8H1305.36H1302.36C1302.36 506.629 1302.09 507.738 1301.31 509.178L1303.96 510.6ZM1305.36 505.8H1308.36C1308.36 503.64 1307.73 501.498 1306 499.958C1304.33 498.477 1302.14 498 1299.96 498V501V504C1301.37 504 1301.88 504.323 1302.01 504.442C1302.08 504.502 1302.36 504.76 1302.36 505.8H1305.36ZM1299.96 501V498C1296.57 498 1293.22 499.188 1289.94 501.269L1291.56 503.8L1293.17 506.331C1295.76 504.679 1298.01 504 1299.96 504V501ZM1291.56 503.8L1289.94 501.269C1286.67 503.356 1284.05 505.945 1282.18 509.057L1284.76 510.6L1287.33 512.143C1288.66 509.921 1290.58 507.977 1293.17 506.331L1291.56 503.8ZM1284.76 510.6L1282.16 509.098L1237.76 585.898L1240.36 587.4L1242.95 588.902L1287.35 512.102L1284.76 510.6ZM1240.36 587.4L1237.73 585.954C1236.55 588.085 1234.7 589.994 1232 591.637L1233.56 594.2L1235.12 596.763C1238.55 594.673 1241.22 592.048 1242.98 588.846L1240.36 587.4ZM1233.56 594.2L1231.94 591.669C1229.32 593.34 1227.14 594 1225.36 594V597V600C1228.63 600 1231.92 598.794 1235.17 596.731L1233.56 594.2ZM1225.36 597V594H1177.36V597V600H1225.36V597ZM1177.36 597V594C1175.85 594 1175.28 593.667 1175.11 593.522C1175.03 593.453 1174.76 593.206 1174.76 592.2H1171.76H1168.76C1168.76 594.394 1169.42 596.547 1171.2 598.078C1172.9 599.533 1175.13 600 1177.36 600V597ZM1171.76 592.2H1174.76C1174.76 591.371 1175.02 590.262 1175.8 588.822L1173.16 587.4L1170.51 585.978C1169.42 588.005 1168.76 590.096 1168.76 592.2H1171.76ZM1173.16 587.4L1175.75 588.902L1220.15 512.102L1217.56 510.6L1214.96 509.098L1170.56 585.898L1173.16 587.4ZM1217.56 510.6L1220.2 512.022C1221.29 509.995 1221.96 507.904 1221.96 505.8H1218.96H1215.96C1215.96 506.629 1215.69 507.738 1214.91 509.178L1217.56 510.6ZM1218.96 505.8H1221.96C1221.96 503.64 1221.33 501.498 1219.6 499.958C1217.93 498.477 1215.74 498 1213.56 498V501V504C1214.97 504 1215.48 504.323 1215.61 504.442C1215.68 504.502 1215.96 504.76 1215.96 505.8H1218.96ZM1213.56 501V498C1210.17 498 1206.82 499.188 1203.54 501.269L1205.16 503.8L1206.77 506.331C1209.36 504.679 1211.61 504 1213.56 504V501ZM1205.16 503.8L1203.54 501.269C1200.27 503.356 1197.65 505.945 1195.78 509.057L1198.36 510.6L1200.93 512.143C1202.26 509.921 1204.18 507.977 1206.77 506.331L1205.16 503.8ZM1198.36 510.6L1195.76 509.098L1151.36 585.898L1153.96 587.4L1156.55 588.902L1200.95 512.102L1198.36 510.6ZM1153.96 587.4L1151.33 585.954C1150.15 588.085 1148.3 589.994 1145.6 591.637L1147.16 594.2L1148.72 596.763C1152.15 594.673 1154.82 592.048 1156.58 588.846L1153.96 587.4ZM1147.16 594.2L1145.54 591.669C1142.92 593.34 1140.74 594 1138.96 594V597V600C1142.23 600 1145.52 598.794 1148.77 596.731L1147.16 594.2ZM1138.96 597V594H1090.96V597V600H1138.96V597ZM1090.96 597V594C1089.45 594 1088.88 593.667 1088.71 593.522C1088.63 593.453 1088.36 593.206 1088.36 592.2H1085.36H1082.36C1082.36 594.394 1083.02 596.547 1084.8 598.078C1086.5 599.533 1088.73 600 1090.96 600V597ZM1085.36 592.2H1088.36C1088.36 591.371 1088.62 590.262 1089.4 588.822L1086.76 587.4L1084.11 585.978C1083.02 588.005 1082.36 590.096 1082.36 592.2H1085.36ZM1086.76 587.4L1089.35 588.903L1139.35 502.503L1136.76 501L1134.16 499.497L1084.16 585.897L1086.76 587.4ZM1136.76 501L1139.38 502.446C1140.58 500.28 1142.4 498.366 1144.97 496.731L1143.36 494.2L1141.74 491.669C1138.45 493.767 1135.87 496.387 1134.13 499.554L1136.76 501ZM1143.36 494.2L1144.92 496.763C1147.67 495.086 1150 494.4 1151.96 494.4V491.4V488.4C1148.58 488.4 1145.17 489.581 1141.8 491.637L1143.36 494.2ZM1151.96 491.4V494.4H1372.76V491.4V488.4H1151.96V491.4ZM1372.76 491.4V494.4C1374.17 494.4 1374.68 494.723 1374.81 494.842C1374.88 494.902 1375.16 495.16 1375.16 496.2H1378.16H1381.16C1381.16 494.04 1380.53 491.898 1378.8 490.358C1377.13 488.877 1374.94 488.4 1372.76 488.4V491.4ZM1378.16 496.2H1375.16C1375.16 497.029 1374.89 498.138 1374.11 499.578L1376.76 501L1379.4 502.422C1380.49 500.395 1381.16 498.304 1381.16 496.2H1378.16ZM1376.76 501L1374.16 499.5L1281.36 660.3L1283.96 661.8L1286.55 663.3L1379.35 502.5L1376.76 501ZM1283.96 661.8L1281.36 660.301C1279.48 663.557 1278.12 664 1277.56 664V667V670C1281.52 670 1284.43 666.976 1286.55 663.299L1283.96 661.8ZM1277.56 667V664C1277.54 664 1277.56 663.998 1277.6 664.012C1277.65 664.026 1277.68 664.046 1277.7 664.059C1277.73 664.082 1277.62 664.014 1277.44 663.658L1274.76 665L1272.07 666.342C1273.1 668.396 1274.92 670 1277.56 670V667ZM1274.76 665L1277.34 663.473L1250.74 618.473L1248.16 620L1245.57 621.527L1272.17 666.527L1274.76 665ZM1248.16 620L1250.79 618.563C1250.3 617.667 1249.96 616.336 1249.96 614.4H1246.96H1243.96C1243.96 616.997 1244.41 619.4 1245.52 621.437L1248.16 620ZM1246.96 614.4H1249.96C1249.96 611.57 1250.63 609.11 1251.93 606.943L1249.36 605.4L1246.78 603.857C1244.88 607.023 1243.96 610.564 1243.96 614.4H1246.96Z" fill="url(#paint1_linear_513_22)" mask="url(#path-3-outside-2_513_22)"/>
<defs>
<linearGradient id="paint0_linear_513_22" x1="1137.52" y1="360.5" x2="657.271" y2="944.737" gradientUnits="userSpaceOnUse">
<stop stop-color="#FF0000"/>
<stop offset="1" stop-color="#0DE3FF"/>
</linearGradient>
<linearGradient id="paint1_linear_513_22" x1="1137.52" y1="234.065" x2="401.107" y2="812.646" gradientUnits="userSpaceOnUse">
<stop stop-color="#FF0000"/>
<stop offset="1" stop-color="#0DE3FF"/>
</linearGradient>
</defs>
</svg>
